<svg width="20" height="20" viewBox="0 0 20 20" fill="none" xmlns="http://www.w3.org/2000/svg">
<g clip-path="url(#clip0_695_2093)">
<path d="M15.7139 12.8569L18.571 12.1426L19.2853 14.9997" stroke="#FBFBFB" stroke-linecap="round" stroke-linejoin="round"/>
<path d="M18.571 12.1429C17.9365 13.9409 16.7839 15.5108 15.2586 16.6548C13.7332 17.7989 11.9033 18.4657 9.99958 18.5714C8.23974 18.5717 6.52246 18.0304 5.08099 17.0208C3.63951 16.0113 2.54372 14.5825 1.94244 12.9286M4.2853 7.14286L1.42815 7.85714L0.713867 5" stroke="#FBFBFB" stroke-linecap="round" stroke-linejoin="round"/>
<path d="M1.42773 7.85728C2.62773 4.57157 6.31345 1.42871 9.99916 1.42871C11.7676 1.43368 13.4912 1.98551 14.9336 3.00853C16.3761 4.03156 17.4668 5.47571 18.0563 7.143" stroke="#FBFBFB" stroke-linecap="round" stroke-linejoin="round"/>
</g>
<defs>
<clipPath id="clip0_695_2093">
<rect width="20" height="20" fill="white"/>
</clipPath>
</defs>
</svg>
