<svg width="24" height="24" viewBox="0 0 24 24" fill="none" xmlns="http://www.w3.org/2000/svg">
<path d="M15.5397 11.2895L9.87974 5.63955C9.78677 5.54582 9.67617 5.47143 9.55431 5.42066C9.43246 5.36989 9.30175 5.34375 9.16974 5.34375C9.03773 5.34375 8.90702 5.36989 8.78516 5.42066C8.6633 5.47143 8.5527 5.54582 8.45974 5.63955C8.27349 5.82691 8.16895 6.08036 8.16895 6.34455C8.16895 6.60873 8.27349 6.86219 8.45974 7.04955L13.4097 12.0495L8.45974 16.9995C8.27349 17.1869 8.16895 17.4404 8.16895 17.7045C8.16895 17.9687 8.27349 18.2222 8.45974 18.4095C8.55235 18.504 8.6628 18.5792 8.78467 18.6307C8.90655 18.6822 9.03743 18.709 9.16974 18.7095C9.30204 18.709 9.43293 18.6822 9.5548 18.6307C9.67668 18.5792 9.78712 18.504 9.87974 18.4095L15.5397 12.7595C15.6412 12.6659 15.7223 12.5523 15.7777 12.4258C15.8331 12.2993 15.8617 12.1627 15.8617 12.0245C15.8617 11.8864 15.8331 11.7498 15.7777 11.6233C15.7223 11.4968 15.6412 11.3832 15.5397 11.2895Z" fill="#FBFBFB"/>
</svg>
