<svg width="22" height="27" viewBox="0 0 22 27" fill="none" xmlns="http://www.w3.org/2000/svg">
<path d="M3.85714 26.5C3.09938 26.5 2.37266 26.1956 1.83684 25.6539C1.30102 25.1121 1 24.3773 1 23.6111V0.5H13.8571L21 7.72222V23.6111C21 24.3773 20.699 25.1121 20.1632 25.6539C19.6273 26.1956 18.9006 26.5 18.1429 26.5H3.85714Z" stroke="black" stroke-linecap="round" stroke-linejoin="round"/>
<path d="M12.4297 0.5V9.16667H21.0011" stroke="black" stroke-linejoin="round"/>
<path d="M9.5731 22.1672C10.3621 22.1672 11.0017 21.5205 11.0017 20.7228C11.0017 19.925 10.3621 19.2783 9.5731 19.2783C8.78412 19.2783 8.14453 19.925 8.14453 20.7228C8.14453 21.5205 8.78412 22.1672 9.5731 22.1672Z" stroke="black"/>
<path d="M11 20.7222V13.5L13.8571 16.3889" stroke="black" stroke-linecap="round" stroke-linejoin="round"/>
</svg>
