<svg width="22" height="22" viewBox="0 0 22 22" fill="none" xmlns="http://www.w3.org/2000/svg">
<path fill-rule="evenodd" clip-rule="evenodd" d="M9.2868 6.72613C9.41707 6.78877 9.52701 6.88693 9.60395 7.00931C9.68089 7.13168 9.7217 7.2733 9.72168 7.41785V14.5806C9.72168 14.7842 9.64083 14.9794 9.4969 15.1233C9.35298 15.2672 9.15778 15.3481 8.95424 15.3481C8.7507 15.3481 8.5555 15.2672 8.41158 15.1233C8.26765 14.9794 8.1868 14.7842 8.1868 14.5806V9.01413L6.87601 10.064C6.79726 10.1269 6.70689 10.1738 6.61005 10.2018C6.51321 10.2298 6.41179 10.2385 6.3116 10.2274C6.2114 10.2162 6.11438 10.1854 6.02609 10.1367C5.93779 10.0881 5.85994 10.0225 5.79699 9.94376C5.73403 9.86502 5.6872 9.77464 5.65917 9.6778C5.63114 9.58096 5.62246 9.47955 5.63363 9.37935C5.65618 9.17699 5.75819 8.99188 5.91722 8.86474L8.47536 6.81823C8.58823 6.72806 8.72426 6.67158 8.86781 6.65529C9.01136 6.63899 9.15659 6.66355 9.2868 6.72613ZM13.3031 8.1853C13.0317 8.1853 12.7714 8.2931 12.5795 8.485C12.3876 8.6769 12.2798 8.93717 12.2798 9.20855V12.7899C12.2798 13.0613 12.3876 13.3216 12.5795 13.5135C12.7714 13.7054 13.0317 13.8132 13.3031 13.8132C13.5745 13.8132 13.8347 13.7054 14.0266 13.5135C14.2185 13.3216 14.3263 13.0613 14.3263 12.7899V9.20855C14.3263 8.93717 14.2185 8.6769 14.0266 8.485C13.8347 8.2931 13.5745 8.1853 13.3031 8.1853ZM10.7449 9.20855C10.7449 8.53009 11.0145 7.87942 11.4942 7.39967C11.9739 6.91993 12.6246 6.65041 13.3031 6.65041C13.9815 6.65041 14.6322 6.91993 15.112 7.39967C15.5917 7.87942 15.8612 8.53009 15.8612 9.20855V12.7899C15.8612 13.4684 15.5917 14.1191 15.112 14.5988C14.6322 15.0786 13.9815 15.3481 13.3031 15.3481C12.6246 15.3481 11.9739 15.0786 11.4942 14.5988C11.0145 14.1191 10.7449 13.4684 10.7449 12.7899V9.20855Z" fill="#83848A"/>
<path fill-rule="evenodd" clip-rule="evenodd" d="M10.3083 0.434884C10.3709 0.304608 10.4691 0.194672 10.5915 0.117735C10.7138 0.0407969 10.8554 -1.43949e-05 11 3.80869e-09C11.7521 3.80869e-09 12.4878 0.075721 13.2 0.22C18.2201 1.23916 22 5.67702 22 11C22 17.0751 17.0751 22 11 22C4.92493 22 0 17.0751 0 11C0 6.48744 2.71674 2.61237 6.6 0.915814C6.69287 0.871814 6.79363 0.846914 6.89631 0.842592C6.99898 0.83827 7.10148 0.854613 7.19772 0.890652C7.29396 0.926692 7.38198 0.981693 7.45656 1.05239C7.53115 1.12309 7.59077 1.20805 7.6319 1.30223C7.67302 1.39641 7.69481 1.49789 7.69598 1.60065C7.69714 1.70341 7.67766 1.80536 7.63868 1.90045C7.5997 1.99553 7.54202 2.08182 7.46906 2.1542C7.3961 2.22657 7.30935 2.28355 7.21395 2.32177C5.65008 3.0043 4.2998 4.09689 3.30598 5.48393C2.31217 6.87097 1.71179 8.50086 1.56838 10.2012C1.42496 11.9014 1.74384 13.6089 2.49128 15.1428C3.23872 16.6767 4.38691 17.98 5.81436 18.9149C7.24181 19.8497 8.89542 20.3813 10.6002 20.4534C12.305 20.5254 13.9976 20.1353 15.4989 19.3243C17.0001 18.5132 18.2542 17.3115 19.1284 15.8461C20.0027 14.3808 20.4645 12.7063 20.4651 11C20.4648 8.98108 19.8193 7.01509 18.6228 5.38893C17.4263 3.76277 15.7414 2.56155 13.814 1.96056V3.32558C13.8141 3.48474 13.7649 3.64001 13.6729 3.76992C13.5809 3.89982 13.4509 3.99792 13.3007 4.05064C13.1505 4.10335 12.9877 4.10808 12.8347 4.06416C12.6817 4.02024 12.5462 3.92984 12.4469 3.80549L10.4004 1.24735C10.31 1.13437 10.2534 0.998154 10.2371 0.854402C10.2208 0.71065 10.2455 0.56522 10.3083 0.434884Z" fill="#83848A"/>
</svg>
