<svg width="55" height="56" viewBox="0 0 55 56" fill="none" xmlns="http://www.w3.org/2000/svg">
<path d="M43.7012 38.3214C43.7012 38.9064 43.5712 39.5077 43.295 40.0927C43.0187 40.6777 42.6613 41.2302 42.19 41.7502C41.3938 42.6277 40.5162 43.2614 39.525 43.6677C38.55 44.0739 37.4938 44.2852 36.3563 44.2852C34.6988 44.2852 32.9275 43.8952 31.0587 43.0989C29.19 42.3027 27.3212 41.2302 25.4688 39.8814C23.5807 38.5003 21.799 36.9794 20.1387 35.3314C18.4955 33.6772 16.9799 31.9008 15.605 30.0177C14.2725 28.1652 13.2 26.3127 12.42 24.4764C11.64 22.6239 11.25 20.8527 11.25 19.1627C11.25 18.0577 11.445 17.0014 11.835 16.0264C12.225 15.0352 12.8425 14.1252 13.7037 13.3127C14.7437 12.2889 15.8813 11.7852 17.0838 11.7852C17.5388 11.7852 17.9938 11.8827 18.4 12.0777C18.8225 12.2727 19.1963 12.5652 19.4888 12.9877L23.2588 18.3014C23.5513 18.7077 23.7625 19.0814 23.9087 19.4389C24.055 19.7802 24.1363 20.1214 24.1363 20.4302C24.1363 20.8202 24.0225 21.2102 23.795 21.5839C23.5838 21.9577 23.275 22.3477 22.885 22.7377L21.65 24.0214C21.4712 24.2002 21.39 24.4114 21.39 24.6714C21.39 24.8014 21.4063 24.9152 21.4388 25.0452C21.4875 25.1752 21.5363 25.2727 21.5688 25.3702C21.8613 25.9064 22.365 26.6052 23.08 27.4502C23.8112 28.2952 24.5912 29.1564 25.4362 30.0177C26.3137 30.8789 27.1587 31.6752 28.02 32.4064C28.865 33.1214 29.5637 33.6089 30.1162 33.9014C30.1975 33.9339 30.295 33.9827 30.4087 34.0314C30.5387 34.0802 30.6687 34.0964 30.815 34.0964C31.0912 34.0964 31.3025 33.9989 31.4812 33.8202L32.7163 32.6014C33.1225 32.1952 33.5125 31.8864 33.8863 31.6914C34.26 31.4639 34.6337 31.3502 35.04 31.3502C35.3487 31.3502 35.6738 31.4152 36.0312 31.5614C36.3887 31.7077 36.7625 31.9189 37.1688 32.1952L42.5475 36.0139C42.97 36.3064 43.2625 36.6477 43.4412 37.0539C43.6037 37.4602 43.7012 37.8664 43.7012 38.3214Z" stroke="black" stroke-width="1.5" stroke-miterlimit="10"/>
</svg>
