<svg width="30" height="30" viewBox="0 0 59 59" fill="none" xmlns="http://www.w3.org/2000/svg">
<circle cx="29.5" cy="29.5" r="28.5" fill="#CDCDCD" stroke="#CDCDCD" stroke-width="2"/>
<path d="M42.1431 22.4765V39.3337C42.1431 39.7062 41.9951 40.0635 41.7317 40.327C41.4682 40.5904 41.1109 40.7384 40.7384 40.7384H18.2622C17.8896 40.7384 17.5323 40.5904 17.2689 40.327C17.0054 40.0635 16.8574 39.7062 16.8574 39.3337V22.4765C16.8574 22.104 17.0054 21.7467 17.2689 21.4832C17.5323 21.2198 17.8896 21.0718 18.2622 21.0718H23.8812L24.8927 19.0349C25.0105 18.8011 25.1913 18.6048 25.4147 18.4683C25.638 18.3318 25.8951 18.2604 26.1569 18.2622H32.8436C33.1054 18.2604 33.3625 18.3318 33.5859 18.4683C33.8093 18.6048 33.9901 18.8011 34.1079 19.0349L35.1193 21.0718H40.7384C41.1109 21.0718 41.4682 21.2198 41.7317 21.4832C41.9951 21.7467 42.1431 22.104 42.1431 22.4765ZM29.5003 26.6908C28.6668 26.6908 27.852 26.938 27.1589 27.401C26.4659 27.8641 25.9258 28.5223 25.6068 29.2924C25.2878 30.0624 25.2044 30.9098 25.367 31.7273C25.5296 32.5448 25.9309 33.2957 26.5203 33.885C27.1097 34.4744 27.8606 34.8758 28.6781 35.0384C29.4956 35.201 30.343 35.1176 31.113 34.7986C31.8831 34.4796 32.5413 33.9395 33.0043 33.2464C33.4674 32.5534 33.7146 31.7386 33.7146 30.9051C33.7146 29.7874 33.2706 28.7155 32.4802 27.9251C31.6899 27.1348 30.618 26.6908 29.5003 26.6908Z" stroke="black" stroke-width="2" stroke-linecap="round" stroke-linejoin="round"/>
</svg>
