<svg width="29" height="28" viewBox="0 0 29 28" fill="none" xmlns="http://www.w3.org/2000/svg">
<path d="M19.8887 11.6663H22.222C24.5553 11.6663 25.722 10.4997 25.722 8.16634V5.83301C25.722 3.49967 24.5553 2.33301 22.222 2.33301H19.8887C17.5553 2.33301 16.3887 3.49967 16.3887 5.83301V8.16634C16.3887 10.4997 17.5553 11.6663 19.8887 11.6663ZM5.88867 25.6663H8.22201C10.5553 25.6663 11.722 24.4997 11.722 22.1663V19.833C11.722 17.4997 10.5553 16.333 8.22201 16.333H5.88867C3.55534 16.333 2.38867 17.4997 2.38867 19.833V22.1663C2.38867 24.4997 3.55534 25.6663 5.88867 25.6663ZM7.05534 11.6663C8.29302 11.6663 9.48 11.1747 10.3552 10.2995C11.2303 9.42434 11.722 8.23735 11.722 6.99967C11.722 5.762 11.2303 4.57501 10.3552 3.69984C9.48 2.82467 8.29302 2.33301 7.05534 2.33301C5.81766 2.33301 4.63068 2.82467 3.75551 3.69984C2.88034 4.57501 2.38867 5.762 2.38867 6.99967C2.38867 8.23735 2.88034 9.42434 3.75551 10.2995C4.63068 11.1747 5.81766 11.6663 7.05534 11.6663ZM21.0553 25.6663C22.293 25.6663 23.48 25.1747 24.3552 24.2995C25.2303 23.4243 25.722 22.2374 25.722 20.9997C25.722 19.762 25.2303 18.575 24.3552 17.6998C23.48 16.8247 22.293 16.333 21.0553 16.333C19.8177 16.333 18.6307 16.8247 17.7555 17.6998C16.8803 18.575 16.3887 19.762 16.3887 20.9997C16.3887 22.2374 16.8803 23.4243 17.7555 24.2995C18.6307 25.1747 19.8177 25.6663 21.0553 25.6663Z" stroke="black" stroke-width="1.5" stroke-miterlimit="10" stroke-linecap="round" stroke-linejoin="round"/>
</svg>
