<svg width="42" height="42" viewBox="0 0 42 42" fill="none" xmlns="http://www.w3.org/2000/svg">
<path d="M27 9C27 11.3869 26.0518 13.6761 24.364 15.364C22.6761 17.0518 20.3869 18 18 18C15.6131 18 13.3239 17.0518 11.636 15.364C9.94821 13.6761 9 11.3869 9 9C9 6.61305 9.94821 4.32387 11.636 2.63604C13.3239 0.948212 15.6131 0 18 0C20.3869 0 22.6761 0.948212 24.364 2.63604C26.0518 4.32387 27 6.61305 27 9ZM0 33C0 36 3 36 3 36H18.768C18.258 34.5546 17.9983 33.0328 18 31.5C17.998 29.5706 18.4106 27.6632 19.2097 25.9071C20.0089 24.1509 21.1759 22.5869 22.632 21.321C21.231 21.114 19.692 21 18 21C3 21 0 30 0 33Z" fill="#EE5B3D"/>
<path d="M42 31.5C42 34.2848 40.8938 36.9555 38.9246 38.9246C36.9555 40.8938 34.2848 42 31.5 42C28.7152 42 26.0445 40.8938 24.0754 38.9246C22.1062 36.9555 21 34.2848 21 31.5C21 28.7152 22.1062 26.0445 24.0754 24.0754C26.0445 22.1062 28.7152 21 31.5 21C34.2848 21 36.9555 22.1062 38.9246 24.0754C40.8938 26.0445 42 28.7152 42 31.5ZM31.5 25.5C31.1022 25.5 30.7206 25.658 30.4393 25.9393C30.158 26.2206 30 26.6022 30 27V31.5C30 31.8978 30.158 32.2794 30.4393 32.5607C30.7206 32.842 31.1022 33 31.5 33C31.8978 33 32.2794 32.842 32.5607 32.5607C32.842 32.2794 33 31.8978 33 31.5V27C33 26.6022 32.842 26.2206 32.5607 25.9393C32.2794 25.658 31.8978 25.5 31.5 25.5ZM31.5 37.5C31.8978 37.5 32.2794 37.342 32.5607 37.0607C32.842 36.7794 33 36.3978 33 36C33 35.6022 32.842 35.2206 32.5607 34.9393C32.2794 34.658 31.8978 34.5 31.5 34.5C31.1022 34.5 30.7206 34.658 30.4393 34.9393C30.158 35.2206 30 35.6022 30 36C30 36.3978 30.158 36.7794 30.4393 37.0607C30.7206 37.342 31.1022 37.5 31.5 37.5Z" fill="#EE5B3D"/>
</svg>
