<svg width="27" height="27" viewBox="0 0 27 40" fill="none" xmlns="http://www.w3.org/2000/svg">
<path d="M9.03965 25.7198C9.18028 25.5794 9.3709 25.5005 9.56965 25.5005C9.7684 25.5005 9.95903 25.5794 10.0997 25.7198L13.3197 28.9398L16.5397 25.7198C16.6313 25.6211 16.7479 25.5489 16.8772 25.5109C17.0064 25.4729 17.1435 25.4704 17.2741 25.5038C17.4046 25.5372 17.5237 25.6051 17.6188 25.7005C17.714 25.7959 17.7816 25.9152 17.8147 26.0458C17.8481 26.1762 17.8457 26.3132 17.8079 26.4423C17.7701 26.5715 17.6981 26.6881 17.5997 26.7798L14.3797 29.9998L17.5997 33.2198C17.6984 33.3115 17.7705 33.4281 17.8086 33.5573C17.8466 33.6866 17.849 33.8237 17.8157 33.9542C17.7823 34.0847 17.7143 34.2038 17.6189 34.299C17.5235 34.3941 17.4043 34.4618 17.2737 34.4948C17.1433 34.5282 17.0063 34.5259 16.8771 34.4881C16.748 34.4502 16.6314 34.3783 16.5397 34.2798L13.3197 31.0598L10.0997 34.2798C9.95739 34.4122 9.76934 34.4843 9.57502 34.481C9.38071 34.4776 9.19526 34.3991 9.05765 34.2618C8.92041 34.1242 8.84185 33.9388 8.8385 33.7444C8.83514 33.5501 8.90724 33.3621 9.03965 33.2198L12.2597 29.9998L9.03965 26.7798C8.8992 26.6392 8.82031 26.4486 8.82031 26.2498C8.82031 26.0511 8.8992 25.8604 9.03965 25.7198Z" fill="black"/>
</svg>
