<svg width="48" height="48" viewBox="0 0 48 48" fill="none" xmlns="http://www.w3.org/2000/svg">
<path d="M24 4C18.477 4 14 8.477 14 14C14 19.523 18.477 24 24 24C29.523 24 34 19.523 34 14C34 8.477 29.523 4 24 4ZM16.5 14C16.5 12.0109 17.2902 10.1032 18.6967 8.6967C20.1032 7.29018 22.0109 6.5 24 6.5C25.9891 6.5 27.8968 7.29018 29.3033 8.6967C30.7098 10.1032 31.5 12.0109 31.5 14C31.5 15.9891 30.7098 17.8968 29.3033 19.3033C27.8968 20.7098 25.9891 21.5 24 21.5C22.0109 21.5 20.1032 20.7098 18.6967 19.3033C17.2902 17.8968 16.5 15.9891 16.5 14ZM12.25 28C11.123 28 10.0422 28.4476 9.24515 29.2444C8.44815 30.0413 8.00027 31.122 8 32.249V33C8 36.755 9.942 39.567 12.92 41.38C15.85 43.163 19.786 44 24 44C28.214 44 32.15 43.163 35.08 41.38C38.058 39.567 40 36.755 40 33V32.249C40 31.6909 39.8901 31.1383 39.6765 30.6227C39.4629 30.1072 39.1498 29.6387 38.7551 29.2442C38.3605 28.8496 37.892 28.5366 37.3763 28.3231C36.8607 28.1097 36.3081 27.9999 35.75 28H12.25ZM10.5 32.249C10.5003 31.785 10.6848 31.3402 11.0129 31.0122C11.3411 30.6842 11.786 30.5 12.25 30.5H35.75C36.717 30.5 37.5 31.283 37.5 32.249V33C37.5 35.744 36.14 37.808 33.78 39.245C31.37 40.712 27.932 41.5 24 41.5C20.068 41.5 16.63 40.712 14.22 39.245C11.86 37.808 10.5 35.745 10.5 33V32.249Z" fill="black"/>
</svg>
