<svg width="48" height="48" viewBox="0 0 48 48" fill="none" xmlns="http://www.w3.org/2000/svg">
<path d="M12 8H8V4H40V8H36V12C36 15.23 34.368 17.83 32.312 19.954C30.906 21.406 29.196 22.744 27.462 24C29.196 25.256 30.906 26.594 32.312 28.046C34.368 30.17 36 32.77 36 36V40H40V44H8V40H12V36C12 32.77 13.632 30.17 15.688 28.046C17.094 26.594 18.804 25.256 20.538 24C18.804 22.744 17.094 21.406 15.688 19.954C13.632 17.83 12 15.23 12 12V8ZM16 8V12C16 13.37 16.52 14.67 17.542 16H30.458C31.478 14.67 32 13.37 32 12V8H16ZM24 26.444C21.91 27.92 20.016 29.326 18.562 30.828C18.2001 31.199 17.8595 31.5903 17.542 32H30.458C30.1404 31.5904 29.7999 31.1991 29.438 30.828C27.984 29.326 26.09 27.92 24 26.444Z" fill="#6676EE"/>
</svg>
