<svg width="52" height="52" viewBox="0 0 52 52" fill="none" xmlns="http://www.w3.org/2000/svg">
<path d="M47.6673 37.3725C47.6664 40.3355 46.6535 43.2094 44.7965 45.5183C42.9395 47.8273 40.3497 49.4328 37.4558 50.0692L36.0735 45.9222C37.3393 45.7137 38.5432 45.227 39.5982 44.4971C40.6533 43.7673 41.5333 42.8125 42.1748 41.7015H36.834C35.6847 41.7015 34.5825 41.245 33.7699 40.4323C32.9572 39.6196 32.5006 38.5174 32.5006 37.3682V28.7015C32.5006 27.5522 32.9572 26.45 33.7699 25.6374C34.5825 24.8247 35.6847 24.3682 36.834 24.3682H43.1996C42.6709 20.1798 40.632 16.3283 37.4654 13.5363C34.2988 10.7443 30.2223 9.20383 26.0006 9.20383C21.779 9.20383 17.7025 10.7443 14.5359 13.5363C11.3693 16.3283 9.33038 20.1798 8.80165 24.3682H15.1673C16.3166 24.3682 17.4188 24.8247 18.2314 25.6374C19.0441 26.45 19.5007 27.5522 19.5007 28.7015V37.3682C19.5007 38.5174 19.0441 39.6196 18.2314 40.4323C17.4188 41.245 16.3166 41.7015 15.1673 41.7015H8.66732C7.51805 41.7015 6.41585 41.245 5.60319 40.4323C4.79053 39.6196 4.33398 38.5174 4.33398 37.3682V26.5348C4.33398 14.5683 14.0342 4.86816 26.0006 4.86816C37.9671 4.86816 47.6673 14.5683 47.6673 26.5348V37.3725ZM43.334 37.3682V28.7015H36.834V37.3682H43.334ZM8.66732 28.7015V37.3682H15.1673V28.7015H8.66732Z" fill="black" fill-opacity="0.8"/>
</svg>
