<svg width="378" height="248" viewBox="0 0 378 248" fill="none" xmlns="http://www.w3.org/2000/svg">
<path d="M378 0H0V248H378V0Z" fill="white"/>
<path fill-rule="evenodd" clip-rule="evenodd" d="M243.387 11.616C275.912 4.33568 306.045 12.9737 322.24 37.6471C338.436 62.3199 334.199 101.472 330.691 118.753C327.182 136.035 318.283 151.864 307.237 165.606C286.721 191.129 258.997 210.661 228.003 221.205C197.009 231.748 163.358 233.91 131.058 228.576C112.94 225.584 56.2628 210.926 44.0282 166.691C31.7938 122.456 24.0509 84.6486 50.5449 69.2912C77.0387 53.9333 95.3903 65.4845 108.506 71.1646C169.782 97.7017 210.863 18.8967 243.387 11.616Z" fill="#60388B"/>
<path fill-rule="evenodd" clip-rule="evenodd" d="M289.186 53.0487C294.404 52.6455 300.028 52.9061 304.28 55.9568C308.531 59.0075 310.463 65.7067 306.972 69.6046C310.918 68.0614 315.557 70.6787 317.534 74.4274C319.512 78.1757 319.408 82.6668 318.814 86.8631C317.34 97.2546 313.104 107.242 306.657 115.523C306.36 116.396 306.064 117.269 305.768 118.142C313.389 120.107 343.148 131.664 335.107 160.155C327.066 188.646 291.95 199.49 288.356 202.901C282.091 208.844 272.528 209.25 263.897 208.976C242.674 208.303 221.516 205.606 200.804 200.933C199.043 200.536 196.812 200.294 195.797 201.787C188.449 212.59 173.085 213.556 160.055 212.615C143.316 211.408 126.674 208.869 110.337 205.031C101.071 202.855 91.2303 199.824 85.4575 192.256C78.7276 183.432 79.5048 171.198 80.597 160.155C76.1733 162.615 68.8366 163.947 58.5873 164.151C52.5524 162.921 48.7883 160.733 47.2943 157.589C40.4629 143.21 38.1203 124.682 46.6273 110.51C47.6492 108.807 48.8283 107.129 50.4925 106.046C52.2565 104.898 54.4071 104.52 56.5042 104.334C64.7749 103.602 73.2607 105.532 80.4004 109.771C80.3369 86.5652 80.2729 63.3596 80.2094 40.1539C80.2058 38.8248 80.224 37.4147 80.9326 36.2902C81.9572 34.6643 84.0564 34.1603 85.9459 33.8075C103.134 30.5991 120.516 28.4349 137.966 27.3316C143.668 26.9713 151.47 28.5579 151.496 34.2707C151.595 56.1488 151.695 78.027 151.795 99.9051C151.818 105.112 152.153 104.677 154.592 103.168C153.059 103.327 153.401 100.726 154.563 99.7126C158.902 95.9306 165.224 95.7915 170.98 95.8499C183.854 95.982 196.728 96.1135 209.602 96.2456C222.075 96.3731 237.035 97.9551 242.682 109.078C242.518 105.772 245.514 102.653 248.824 102.683C252.433 102.716 255.452 99.5851 256.505 96.1327C257.558 92.6803 257.094 88.9708 256.619 85.3924C250.8 79.7572 249.276 70.1777 253.061 63.0148C256.845 55.852 265.617 51.7116 273.552 53.3436C278.678 54.3974 283.97 53.4514 289.186 53.0487ZM139.803 160.366C139.631 164.973 139.45 169.641 138.094 174.047L139.803 160.366ZM134.469 103.836C135.667 104.187 137.15 105.25 136.521 106.328C141.726 106.848 140.172 106.607 140.406 100.473C140.644 94.2487 140.663 87.3666 136.588 82.6557C132.983 78.4871 127.102 77.1833 121.61 76.7146C115.201 76.1672 108.722 76.4303 102.378 77.4952C99.2822 78.0149 95.9291 78.91 94.1329 81.4839C93.1274 82.9248 92.7575 84.704 92.4621 86.4357C91.3004 93.2473 90.9375 100.195 91.3836 107.091C104.728 100.882 120.342 99.7025 134.469 103.836ZM250.284 149.567C250.61 149.237 251.105 149.157 251.564 149.094C253.398 148.841 255.232 148.589 257.065 148.337C252.857 146.436 250.306 141.921 249.544 137.366C248.782 132.811 249.526 128.154 250.278 123.598C247.585 126.593 247.779 131.114 248.132 135.126C248.904 143.908 249.958 149.896 250.284 149.567ZM215.658 192.824C216.019 191.651 217.246 191.021 218.146 190.185C219.764 188.681 220.365 186.408 220.893 184.262C222.717 176.849 224.552 169.345 224.529 161.711C224.525 160.093 224.443 158.432 224.978 156.905C225.514 155.379 226.856 153.999 228.473 153.991C230.179 153.983 230.586 151.617 230.433 149.919C229.907 144.062 229.382 138.204 228.856 132.347C228.688 130.476 228.517 128.588 227.949 126.798C225.85 120.179 217.762 116.176 211.226 118.523C210.426 118.81 210.212 119.821 210.121 120.666C209.115 130.035 208.109 139.404 207.103 148.772C206.925 150.437 209.074 151.499 210.696 151.087C212.319 150.675 213.558 149.407 214.961 148.493C216.364 147.58 218.342 147.054 219.63 148.123C221.086 149.332 223.242 147.989 224.506 146.582C225.771 145.175 227.418 143.478 229.217 144.066C227.107 146.084 224.997 148.102 222.887 150.12C222.187 150.79 221.57 152.127 222.454 152.522C224.879 151.662 227.07 150.155 228.741 148.199C229.514 148.175 229.55 149.388 229.119 150.029C227.495 152.447 223.671 152.985 222.687 155.727C220.389 162.125 213.223 166.375 206.507 165.322C205.129 165.107 204.442 166.919 204.277 168.303C203.615 173.824 202.954 179.345 202.293 184.866C202.141 186.136 201.999 187.479 202.522 188.646C203.395 190.594 205.728 191.331 207.797 191.855C210.532 192.548 213.298 193.244 216.093 193.547C217.27 193.675 217.266 193.243 215.658 192.824ZM106.706 182.702C110.614 184.011 114.75 184.454 118.848 184.889C120.585 185.074 122.436 185.239 123.995 184.45C125.83 183.52 126.808 181.506 127.597 179.606C131.998 169.012 134.511 157.637 134.982 146.175C135.049 144.546 132.964 143.827 131.338 143.718C118.354 142.846 105.936 148.554 94.1767 154.128C93.6133 154.395 93.01 154.7 92.7318 155.258C92.5241 155.674 92.5347 156.161 92.5503 156.626C92.761 162.958 93.0266 169.517 95.8586 175.185C96.6236 176.716 97.5964 178.188 98.9738 179.204C99.8079 179.819 100.763 180.246 101.71 180.667C103.353 181.399 105 182.131 106.706 182.702ZM190.701 159.266C192.432 149.959 193.652 140.556 194.353 131.115C194.593 127.885 194.769 124.602 194.071 121.44C193.373 118.277 191.688 115.203 188.934 113.498C187.237 112.448 185.251 111.976 183.286 111.626C179.701 110.987 176.054 110.696 172.412 110.761C169.199 110.818 165.826 111.209 163.204 113.066C162.336 113.68 161.548 114.484 161.231 115.498C160.914 116.512 161.182 117.759 162.061 118.355C164.285 119.861 165.192 122.679 165.609 125.332C166.025 127.985 166.126 130.764 167.335 133.163C167.958 134.399 168.852 135.478 169.79 136.498C174.874 142.026 181.506 146.115 188.728 148.176C189.997 148.539 191.613 149.323 191.344 150.616C195.338 153.135 190.635 159.624 190.701 159.266ZM179.694 186.719C181.164 185.825 182.162 184.338 183.039 182.858C186.764 176.578 189.206 169.542 190.173 162.305C176.776 162.244 163.46 157.19 153.397 148.346C153.053 149.729 153.119 151.175 153.165 152.599C153.459 161.487 152.932 170.402 151.592 179.193C151.273 181.289 152.525 183.385 154.246 184.622C155.967 185.86 158.087 186.392 160.169 186.793C164.862 187.696 169.657 188.067 174.433 187.895C176.249 187.829 178.141 187.662 179.694 186.719ZM264.229 110.053C263.449 108.171 262.863 106.049 261.243 104.814C259.622 103.578 256.572 104.183 256.477 106.218C258.08 105.922 259.306 107.902 259.033 109.509C258.759 111.116 257.591 112.394 256.662 113.734C255.38 115.586 254.503 117.682 253.635 119.761C251.57 124.706 250.766 130.173 251.32 135.504C251.646 138.642 252.506 141.866 254.629 144.201C256.751 146.536 260.388 147.704 263.185 146.242C265.587 144.987 266.785 142.219 267.335 139.566C267.886 136.912 267.984 134.135 269.025 131.632C270.945 127.016 275.679 124.227 280.362 122.476C273.322 121.52 266.952 116.615 264.229 110.053ZM244.762 115.046C245.075 116.256 245.508 117.435 246.054 118.56C246.381 116.975 246.907 115.431 247.614 113.976C246.898 113.894 246.178 113.855 245.457 113.859C245.282 113.86 245.097 113.867 244.949 113.961C244.617 114.172 244.663 114.665 244.762 115.046ZM159.905 113.8C159.462 114.157 159.202 114.925 159.67 115.249C160.386 114.531 161.103 113.813 161.82 113.096C161.671 112.912 161.456 112.784 161.224 112.742C160.94 113.235 160.348 113.444 159.905 113.8Z" fill="white"/>
<path d="M284.004 108.659C285.536 108.659 286.776 107.418 286.776 105.887C286.776 104.356 285.536 103.115 284.004 103.115C282.473 103.115 281.232 104.356 281.232 105.887C281.232 107.418 282.473 108.659 284.004 108.659Z" fill="#FFB61D"/>
<path d="M268.128 105.887C268.963 105.887 269.64 105.21 269.64 104.375C269.64 103.54 268.963 102.863 268.128 102.863C267.293 102.863 266.616 103.54 266.616 104.375C266.616 105.21 267.293 105.887 268.128 105.887Z" fill="#FFB61D"/>
<path fill-rule="evenodd" clip-rule="evenodd" d="M124.954 66.1105C129.49 66.1393 134.026 66.168 138.562 66.1967C138.774 66.1982 139.002 66.2043 139.174 66.3298C139.523 66.5868 139.384 67.1886 139.023 67.4305C138.664 67.6724 138.196 67.6623 137.762 67.6472C133.771 67.5086 129.767 67.7163 125.811 68.2661C125.209 68.3498 124.575 68.4375 124.012 68.2092C123.449 67.9804 123.019 67.3065 123.278 66.7571C123.549 66.1831 124.32 66.1065 124.954 66.1105ZM109.786 65.665C110.073 65.9513 109.936 66.4774 109.616 66.7279C109.297 66.9784 108.869 67.0283 108.465 67.0691C104.444 67.4764 100.423 67.8836 96.4017 68.2908C95.9259 68.3392 95.434 68.3856 94.9794 68.2389C94.5243 68.0928 94.1125 67.6991 94.1019 67.2213C94.0908 66.7284 94.5091 66.3096 94.9769 66.1524C95.4441 65.9951 95.9516 66.039 96.4435 66.0778C100.564 66.4018 104.724 66.2148 108.799 65.5229C109.14 65.4644 109.54 65.4205 109.786 65.665ZM109.222 57.9457C109.523 58.1881 109.416 58.7078 109.115 58.9492C108.813 59.1906 108.403 59.2304 108.018 59.2607L95.1034 60.2797C94.62 60.3175 94.119 60.3538 93.6634 60.189C93.2073 60.0237 92.8071 59.5988 92.8333 59.1145C92.86 58.6241 93.3131 58.2436 93.7904 58.1277C94.2677 58.0117 94.7677 58.0984 95.2535 58.1705C99.6368 58.8181 104.094 58.2275 108.506 57.8263C108.754 57.8036 109.029 57.7895 109.222 57.9457ZM127.259 55.3869C129.953 55.7311 132.685 55.7836 135.391 55.5431C136.467 55.4474 137.767 55.4025 138.378 56.2926C137.653 56.8793 136.656 56.9624 135.725 57.0214C132.639 57.2154 129.553 57.41 126.468 57.6045C125.764 57.6489 124.886 57.5954 124.596 56.9528C124.336 56.3758 124.794 55.6818 125.382 55.4484C125.97 55.2145 126.631 55.3068 127.259 55.3869ZM103.979 52.0882C103.982 52.5539 103.398 52.755 102.937 52.8231L96.1557 53.817C95.6714 53.888 95.1714 53.9581 94.6986 53.8316C94.2259 53.7056 93.7839 53.3296 93.74 52.8422C93.6856 52.246 94.2455 51.7425 94.8302 51.6125C95.4148 51.4824 96.0206 51.6185 96.6149 51.6951C98.6631 51.9587 100.73 51.5086 102.794 51.4376C103.299 51.4204 103.975 51.5827 103.979 52.0882ZM136.701 50.4649C137.227 50.5233 137.765 50.8363 137.905 51.3453C136.973 52.0504 135.741 52.1784 134.578 52.2818C132.586 52.4582 130.594 52.6346 128.602 52.8115C127.9 52.8735 127.198 52.936 126.496 52.998C125.983 53.0433 125.45 53.0862 124.967 52.9042C124.486 52.7223 124.074 52.244 124.146 51.7339C124.259 50.93 125.314 50.7214 126.126 50.7385C129.137 50.8035 132.186 51.2581 135.136 50.6518C135.653 50.5455 136.177 50.4059 136.701 50.4649ZM139.347 42.8605C124.586 44.8508 109.453 43.8201 94.8952 46.9691C94.0318 47.1556 92.8268 47.1652 92.6035 46.3104C92.6237 45.3034 93.926 44.94 94.9305 44.8684C109.092 43.8584 123.254 42.8484 137.415 41.8384C138.246 41.7789 139.412 42.0304 139.347 42.8605Z" fill="#E7EAEE"/>
<path fill-rule="evenodd" clip-rule="evenodd" d="M87.4248 195.866C87.579 197.652 85.1175 198.257 83.3247 198.264C74.0093 198.301 64.703 200.029 55.9954 203.338C54.6663 203.843 53.244 204.48 52.5974 205.746C51.7406 207.422 52.6755 209.567 54.1905 210.684C55.7061 211.802 57.6399 212.142 59.4982 212.445C107.795 220.309 156.81 223.757 205.732 222.73L206.519 222.712C212.161 222.582 217.919 222.279 223.088 220.045C218.809 217.045 214.531 214.046 210.251 211.047C217.659 209.567 225.302 210.621 232.819 211.364C250.024 213.062 267.394 213.096 284.605 211.467C283.394 213.403 280.729 213.672 278.446 213.721C256.795 214.187 235.118 213.418 213.555 211.419C216.369 213.27 219.182 215.121 221.995 216.973C223.015 217.644 224.143 218.495 224.201 219.714C224.29 221.546 222.039 222.46 220.23 222.76C214.225 223.751 208.117 223.91 202.031 223.998C154.505 224.693 106.919 221.292 59.9744 213.846C57.6838 213.483 55.3104 213.077 53.4003 211.762C51.4901 210.446 50.1882 207.944 50.9906 205.768C51.789 203.604 54.2182 202.588 56.4112 201.871C66.4463 198.593 76.8912 196.571 87.4248 195.866ZM151.496 34.2707C151.596 56.1488 151.695 78.027 151.795 99.9051C151.818 105.112 152.844 111.702 157.88 113.028C164.838 109.816 172.681 108.547 180.298 109.401C184.658 109.89 189.185 111.208 192.137 114.454C196.186 118.906 196.192 125.613 195.758 131.615C194.877 143.782 193.141 155.888 190.568 167.813C192.612 167.684 194.697 168.504 196.105 169.991C193.936 170.983 191.352 171.025 189.152 170.102C190.663 178.293 183.991 186.373 176 188.719C168.009 191.066 159.338 188.853 151.823 185.262C151.118 188.006 154.79 189.619 157.593 190.033C164.708 191.085 171.823 192.137 178.939 193.188C170.151 193.452 161.335 192.733 152.707 191.048C151.118 193.298 154.716 195.57 157.435 196.01C164.647 197.177 171.859 198.344 179.072 199.511C170.925 199.457 162.783 198.914 154.702 197.886C159.842 202.522 166.857 205.014 173.769 204.66C169.87 205.943 165.538 205.866 161.687 204.445C166.504 210.897 176.361 212.092 183.559 208.483C190.757 204.875 195.457 197.492 197.756 189.775C200.055 182.059 200.278 173.903 200.686 165.861C201.438 151.017 202.875 136.193 205.475 121.559C207.227 111.705 211.528 99.9545 221.439 98.5619C203.781 97.748 186.106 97.3095 168.43 97.2455C163.058 97.2263 156.386 98.1048 154.592 103.168C153.059 103.327 153.401 100.726 154.563 99.7126C158.902 95.9305 165.224 95.7915 170.98 95.8499L209.602 96.2455C222.075 96.3731 237.035 97.9551 242.682 109.078C242.518 105.772 245.514 102.653 248.824 102.683C252.433 102.716 255.452 99.5851 256.505 96.1327C257.559 92.6803 257.094 88.9708 256.62 85.3924C250.8 79.7572 249.276 70.1777 253.061 63.0148C254.131 60.9887 255.713 56.1579 264.545 53.0487C270.434 50.9758 276.255 51.2036 282.008 53.7321C292.811 51.6431 300.235 52.385 304.28 55.9568C310.346 61.3153 310.463 65.7067 306.972 69.6046C310.919 68.0614 315.558 70.6786 317.535 74.4274C319.512 78.1756 319.408 82.6668 318.814 86.8631C317.341 97.2546 313.104 107.242 306.657 115.523L305.768 118.142C321.365 122.163 333.983 135.949 336.61 151.841C331.424 140.153 324.405 127.774 312.31 123.625C309.581 126.488 306.775 129.475 305.493 133.216C304.211 136.958 304.904 141.686 308.154 143.94C306.112 144.413 304.071 144.886 302.03 145.359C302.709 146.564 303.389 147.769 304.068 148.975C296.355 154.838 295.468 165.929 295.515 175.617C295.562 185.306 295.385 196.232 288.356 202.901C282.091 208.844 272.528 209.25 263.897 208.976C242.674 208.303 221.516 205.606 200.804 200.933C199.043 200.536 196.812 200.294 195.797 201.787C188.45 212.59 173.085 213.556 160.055 212.615C143.316 211.408 126.675 208.869 110.338 205.031C101.071 202.855 91.2305 199.824 85.4577 192.256C78.7278 183.432 79.5049 171.198 80.5971 160.155C73.9619 163.845 66.096 165.272 58.5874 164.151C66.5022 158.977 70.3402 149.078 70.4123 139.622C70.4843 130.166 67.3283 121.001 63.8164 112.221C56.0795 116.708 52.0087 126.168 52.6145 135.091C53.2198 144.015 57.9544 152.297 64.3068 158.594C56.4757 153.652 51.294 144.749 50.8651 135.499C50.4362 126.248 54.7721 116.904 62.1119 111.258C60.9391 107.247 54.8881 106.757 51.7164 109.479C48.545 112.2 47.5497 116.617 46.7339 120.716C45.2265 128.289 43.7129 136.039 44.8081 143.683C45.9034 151.326 50.1257 158.977 57.2009 162.07C53.8947 164.454 49.4905 161.023 47.2945 157.589C38.3894 143.663 38.1205 124.682 46.6275 110.51C47.6494 108.807 48.8285 107.129 50.4927 106.046C52.2567 104.898 54.4072 104.52 56.5044 104.334C64.775 103.602 73.2609 105.532 80.401 109.771C80.337 86.5652 80.2735 63.3596 80.2095 40.1539C80.206 38.8248 80.2241 37.4146 80.9328 36.2902C81.9574 34.6643 84.0566 34.1603 85.9461 33.8075C103.134 30.5991 120.516 28.4349 137.966 27.3316C143.668 26.9713 151.471 28.5579 151.496 34.2707ZM139.842 28.7297C121.341 29.6006 102.908 31.8878 84.7551 35.5645C83.9825 35.7207 83.1645 35.9037 82.603 36.4565C81.838 37.21 81.779 38.404 81.7689 39.4775C81.5522 62.5844 81.6439 85.6938 82.0436 108.798C84.2652 108.244 86.4868 107.69 88.708 107.136C87.8396 102.395 86.9677 97.5902 87.3391 92.7846C87.7101 87.979 89.4735 83.0922 93.1008 79.918C97.0265 76.4827 102.505 75.512 107.709 75.1466C112.712 74.7953 117.747 74.877 122.737 75.3895C127.831 75.9132 133.197 77.0447 136.872 80.6105C142.18 85.7618 142.267 94.1071 141.991 101.499C141.262 121.121 140.532 140.744 139.803 160.366C139.632 164.973 139.45 169.641 138.094 174.047C136.739 178.452 134.048 182.639 129.978 184.801C125.983 186.922 121.203 186.862 116.709 186.352C112.418 185.864 108.169 185.013 104.021 183.812C101.502 183.082 98.9805 182.203 96.839 180.688C89.7538 175.673 88.9161 165.668 88.7438 156.99C86.0232 156.498 83.3636 158.569 82.2401 161.095C81.1172 163.621 81.1666 166.492 81.2367 169.255C81.4106 176.149 81.6792 183.388 85.1986 189.318C90.6287 198.468 102.034 201.849 112.447 204.034C130.931 207.912 149.697 210.441 168.547 211.595C160.134 207.31 152.676 199.976 150.902 190.704C150.419 188.185 150.368 185.606 150.317 183.042C149.335 132.904 148.353 82.7676 147.371 32.6302C147.309 29.4595 143.01 28.5805 139.842 28.7297ZM211.56 111.046C211.092 112.187 210.752 113.453 211.064 114.647C211.375 115.84 212.535 116.882 213.751 116.68C219.201 115.772 225.076 118.456 227.957 123.17C230.333 127.06 230.664 131.819 230.931 136.369L233.369 177.821C233.629 182.251 233.758 187.125 231.004 190.605C227.432 195.12 220.725 195.27 214.995 194.71C210.268 194.248 205.294 193.462 201.624 190.446C201.754 192.201 201.242 193.997 200.206 195.42C198.928 197.176 200.992 199.487 202.999 200.318C205.45 201.333 208.117 201.686 210.748 202.027C222.799 203.591 234.858 205.1 246.924 206.552C256.21 207.67 265.646 208.753 274.878 207.253C269.038 205.614 263.448 203.08 258.365 199.769C255.83 198.116 253.378 196.229 251.648 193.744C248.825 189.69 248.23 184.538 247.76 179.619C246.364 164.994 245.324 150.335 244.643 135.659C244.14 124.835 240.669 114.163 234.708 105.113C233.642 103.495 232.338 101.816 230.453 101.366C222.96 99.5745 214.484 103.918 211.56 111.046ZM177.202 204.719C177.838 204.827 178.49 204.969 179.014 205.345C179.538 205.721 179.903 206.388 179.742 207.012C179.581 207.637 178.757 208.047 178.237 207.666C177.662 207.247 176.898 207.232 176.213 207.038C175.529 206.845 174.811 206.276 174.934 205.576C175.091 204.688 176.313 204.568 177.202 204.719ZM150.814 204.983C151.602 205.146 152.525 205.708 152.364 206.498C152.222 207.194 151.361 207.425 150.657 207.519C149.867 207.625 149.025 207.722 148.308 207.376C147.592 207.028 147.128 206.05 147.597 205.407C147.914 204.974 148.508 204.859 149.044 204.837C149.637 204.813 150.233 204.862 150.814 204.983ZM197.992 196.212C197.244 196.752 196.73 197.548 196.202 198.305C193.794 201.754 190.742 204.752 187.252 207.099C187.339 207.469 187.894 207.376 188.223 207.185C192.265 204.843 195.15 200.974 197.918 197.211C198.145 196.903 198.331 196.388 197.992 196.212ZM234.138 103.025C236.294 105.572 238.468 108.143 240.046 111.083C241.756 114.272 242.717 117.804 243.49 121.338C247.818 141.109 246.663 161.664 249.468 181.707C249.974 185.324 250.643 189.017 252.525 192.147C254.73 195.814 258.388 198.355 262.116 200.456C265.13 202.154 268.277 203.646 271.587 204.652C276.852 206.252 283.176 206.364 287.212 202.623C289.478 200.523 290.67 197.526 291.602 194.58C295.593 181.952 296.031 168.222 292.855 155.364C292.935 163.054 293.934 170.726 293.705 178.412C293.477 186.099 291.899 194.014 287.38 200.237C286.485 201.47 285.447 202.653 284.095 203.353C282.314 204.276 280.197 204.258 278.205 204.015C274.727 203.59 271.326 202.539 268.214 200.928C265.851 199.703 263.664 198.165 261.545 196.554C259.082 194.681 256.664 192.663 254.938 190.095C253.228 187.55 252.275 184.576 251.519 181.604C245.997 159.903 249.945 136.495 243.394 115.083C241.849 110.036 239.168 104.622 234.138 103.025ZM102.419 198.494C115.164 200.461 127.911 202.428 140.656 204.396C140.334 205.239 139.168 205.268 138.273 205.149C127.373 203.693 116.472 202.237 105.572 200.78C104.34 200.616 103.107 200.451 101.874 200.287C101.29 200.208 100.564 199.996 100.489 199.411C100.385 198.586 101.597 198.367 102.419 198.494ZM250.278 123.598C247.585 126.593 247.779 131.114 248.132 135.126C248.904 143.908 249.676 152.691 250.448 161.473C250.484 161.884 250.528 162.317 250.769 162.652C251.163 163.199 251.925 163.294 252.598 163.342C261.762 163.987 270.926 164.633 280.089 165.279C279.404 166.362 277.86 166.378 276.582 166.279C267.955 165.614 259.293 165.397 250.643 165.633C250.494 170.069 251.148 174.53 252.563 178.737C253.177 180.56 255.539 180.948 257.461 181.026C264.791 181.323 272.121 181.62 279.451 181.916C279.788 182.676 278.604 183.15 277.772 183.141C270.239 183.054 262.704 182.967 255.17 182.881C254.138 182.869 253.764 184.331 254.154 185.287C255.17 187.785 258.406 188.323 261.098 188.492L277.942 189.547C278.327 189.571 278.407 190.175 278.126 190.439C277.846 190.703 277.418 190.71 277.033 190.702L257.31 190.283C262.41 196.353 269.562 200.665 277.309 202.342C278.979 202.703 280.749 202.941 282.37 202.406C284.311 201.765 285.743 200.117 286.863 198.407C292.805 189.341 292.41 177.677 291.803 166.854L291.114 154.587C291.355 154.256 291.849 154.142 292.21 154.333C292.35 153.732 291.567 153.374 290.96 153.263C277.555 150.801 263.799 148.334 250.383 150.74C249.954 150.564 249.958 149.896 250.284 149.567C250.61 149.237 251.105 149.157 251.564 149.094C253.398 148.841 255.232 148.589 257.066 148.337C252.857 146.436 250.306 141.921 249.544 137.366C248.782 132.811 249.526 128.154 250.278 123.598ZM184.391 198.171C185.585 198.394 186.964 198.759 187.43 199.88C186.101 200.786 184.355 200.694 182.751 200.565C182.31 200.53 181.828 200.476 181.518 200.16C180.97 199.601 181.379 198.571 182.085 198.231C182.79 197.892 183.622 198.028 184.391 198.171ZM93.4536 189.977C107.186 194.292 121.417 197.02 135.771 198.089C136.884 198.172 138.381 198.703 138.167 199.799C122.986 198.082 107.897 195.545 92.9895 192.201C92.0384 191.988 90.8177 191.311 91.172 190.402C91.4835 189.604 92.6367 189.72 93.4536 189.977ZM143.752 196.637C144.453 196.635 145.13 196.876 145.785 197.125C146.119 197.252 146.486 197.415 146.615 197.748C146.89 198.456 145.913 198.963 145.165 199.098C144.662 199.19 144.158 199.281 143.655 199.373C143.23 199.45 142.773 199.523 142.382 199.34C141.747 199.042 141.582 198.126 141.947 197.527C142.31 196.928 143.05 196.639 143.752 196.637ZM208.417 195.123C214.491 196.278 220.713 196.344 226.896 196.406C227.374 196.41 227.503 197.163 227.161 197.498C226.82 197.833 226.286 197.848 225.808 197.838C220.036 197.725 214.257 197.117 208.502 197.57C207.875 197.62 207.225 197.679 206.636 197.458C206.048 197.238 205.546 196.643 205.658 196.025C205.754 195.492 206.274 195.118 206.806 195.015C207.337 194.912 207.884 195.022 208.417 195.123ZM222.139 99.8985C215.262 100.926 209.483 107.047 208.855 113.972C208.267 120.441 206.482 126.73 205.211 133.1C201.13 153.553 202.368 174.75 198.76 195.292C200.078 192.892 200.433 190.099 200.765 187.381L209.515 115.728C209.748 113.821 209.985 111.893 210.67 110.098C212.542 105.194 217.38 102.113 222.139 99.8985ZM190.868 192.701C191.243 192.82 191.627 192.976 191.876 193.28C192.126 193.584 192.189 194.074 191.916 194.357C191.71 194.57 191.387 194.609 191.092 194.635C190.125 194.72 189.159 194.806 188.192 194.891C187.67 194.937 187.131 194.981 186.634 194.817C186.136 194.652 185.688 194.221 185.674 193.697C185.649 192.81 186.744 192.364 187.629 192.306C188.721 192.235 189.825 192.37 190.868 192.701ZM211.226 118.523C210.426 118.81 210.212 119.821 210.122 120.666L207.104 148.772C206.925 150.437 209.074 151.499 210.697 151.087C212.319 150.675 213.558 149.407 214.961 148.493C216.364 147.58 218.342 147.054 219.63 148.123C221.086 149.332 223.242 147.989 224.506 146.582C225.771 145.175 227.418 143.478 229.217 144.066C227.107 146.084 224.997 148.102 222.887 150.12C222.187 150.79 221.57 152.127 222.454 152.522C224.879 151.662 227.071 150.155 228.741 148.199C229.514 148.175 229.55 149.388 229.119 150.029C227.495 152.447 223.672 152.985 222.687 155.727C220.39 162.125 213.223 166.375 206.507 165.322C205.129 165.107 204.442 166.919 204.277 168.303C203.615 173.824 202.954 179.345 202.293 184.866C202.141 186.136 201.999 187.479 202.522 188.646C203.395 190.594 205.728 191.331 207.797 191.855C211.683 192.84 215.633 193.832 219.64 193.69C223.646 193.549 227.789 192.116 230.326 189.012C229.624 188.1 228.059 189.269 227.035 188.742C226.034 188.225 226.566 186.506 227.641 186.168C228.716 185.83 229.85 186.367 230.848 186.889C231.475 185.666 232.12 184.357 231.991 182.988C231.862 181.62 230.606 180.266 229.266 180.574C228.386 180.776 228.027 179.25 228.737 178.691C229.446 178.133 230.466 178.314 231.345 178.523C231.394 175.22 231.443 171.917 231.492 168.614C231.501 167.941 231.504 167.232 231.184 166.639C230.864 166.046 230.107 165.63 229.499 165.923C228.672 166.321 227.954 164.912 228.508 164.179C229.062 163.446 230.108 163.351 231.026 163.319C231.097 160.386 230.907 157.446 230.46 154.546C227.003 156.279 226.398 160.849 226.049 164.7C225.381 172.086 224.035 179.41 222.036 186.551C221.588 188.151 221.084 189.787 220.037 191.077C218.99 192.367 217.266 193.243 215.658 192.824C216.019 191.651 217.247 191.021 218.146 190.185C219.764 188.681 220.365 186.408 220.893 184.262C222.717 176.849 224.553 169.345 224.529 161.711L224.526 161.199C224.514 159.745 224.499 158.271 224.978 156.905C225.514 155.379 226.856 153.999 228.473 153.991C230.179 153.983 230.586 151.617 230.433 149.919C229.908 144.062 229.382 138.204 228.856 132.347C228.688 130.476 228.517 128.588 227.949 126.798C225.85 120.178 217.762 116.176 211.226 118.523ZM236.962 189.957C237.763 190.172 238.541 190.997 238.208 191.757C237.89 192.483 236.891 192.523 236.102 192.448C235.716 192.412 235.304 192.365 235.003 192.121C234.474 191.694 234.549 190.787 235.044 190.322C235.539 189.856 236.305 189.781 236.962 189.957ZM140.632 189.145C141.159 189.259 141.709 189.413 142.088 189.797C142.467 190.181 142.592 190.865 142.215 191.252C141.907 191.567 141.411 191.573 140.97 191.557C140.337 191.535 139.703 191.513 139.07 191.49C138.703 191.478 138.311 191.456 138.016 191.237C137.387 190.769 137.662 189.673 138.339 189.275C139.015 188.877 139.865 188.979 140.632 189.145ZM91.8197 183.398C95.3658 185.047 99.2622 185.767 103.115 186.438C110.915 187.797 118.739 189.02 126.581 190.108C127.678 190.261 128.894 190.476 129.563 191.36C126.526 191.568 123.491 191.062 120.489 190.558C110.593 188.896 100.697 187.234 90.8006 185.572C89.7634 185.398 88.4242 184.822 88.6263 183.79C88.8657 182.566 90.6892 182.872 91.8197 183.398ZM153.397 148.346C153.053 149.729 153.119 151.175 153.166 152.599C153.459 161.487 152.932 170.402 151.592 179.193C151.273 181.289 152.525 183.385 154.246 184.622C155.967 185.86 158.088 186.391 160.169 186.793C164.862 187.696 169.657 188.067 174.433 187.895C176.249 187.829 178.141 187.662 179.694 186.719C181.165 185.825 182.162 184.338 183.04 182.858C186.764 176.578 189.206 169.542 190.173 162.305C176.776 162.244 163.46 157.19 153.397 148.346ZM188.435 183.586C189.35 183.888 190.264 184.19 191.179 184.491C191.484 184.592 191.811 184.709 191.992 184.974C192.298 185.422 192.001 186.078 191.527 186.345C191.055 186.611 190.48 186.597 189.938 186.575C188.951 186.536 187.86 186.452 187.17 185.744C186.481 185.036 186.718 183.509 187.704 183.445C187.953 183.428 188.198 183.508 188.435 183.586ZM236.38 183.718C236.924 183.805 237.498 183.905 237.917 184.263C238.336 184.62 238.508 185.328 238.122 185.721C237.967 185.879 237.75 185.96 237.541 186.033C236.731 186.315 235.832 186.54 235.031 186.233C234.231 185.926 233.685 184.868 234.188 184.174C234.651 183.536 235.602 183.594 236.38 183.718ZM94.1769 154.128C93.6134 154.395 93.0101 154.7 92.7319 155.258C92.5243 155.674 92.5348 156.161 92.5505 156.626C92.7611 162.958 93.0267 169.517 95.8587 175.185C96.6238 176.716 97.5965 178.188 98.9739 179.204C99.8081 179.819 100.763 180.246 101.71 180.667C103.353 181.399 105 182.131 106.706 182.702C110.614 184.011 114.75 184.454 118.848 184.889C120.585 185.074 122.436 185.239 123.995 184.45C125.83 183.52 126.808 181.506 127.597 179.606C131.999 169.012 134.511 157.637 134.982 146.175C135.049 144.546 132.964 143.827 131.338 143.718C118.354 142.846 105.936 148.554 94.1769 154.128ZM136.999 145.716C136.666 146.154 136.624 146.74 136.591 147.289C135.814 160.252 132.588 173.063 127.133 184.848C132.33 182.217 136.202 177.11 137.332 171.395C137.72 169.431 137.799 167.42 137.878 165.419C138.125 159.109 138.372 152.799 138.619 146.49C138.632 146.157 138.634 145.791 138.423 145.534C138.073 145.109 137.332 145.277 136.999 145.716ZM139.151 177.288C139.811 177.324 140.43 177.598 141.072 177.757C141.646 177.9 141.819 178.717 141.498 179.215C141.178 179.711 140.56 179.928 139.974 180.01C139.362 180.096 138.705 180.063 138.179 179.74C137.653 179.416 137.312 178.74 137.522 178.16C137.747 177.539 138.492 177.252 139.151 177.288ZM236.758 175.574C237.375 175.702 237.904 176.084 238.411 176.456C238.687 176.658 238.98 176.885 239.07 177.215C239.185 177.635 238.908 178.089 238.525 178.298C238.142 178.508 237.684 178.523 237.249 178.488C236.631 178.439 235.993 178.286 235.527 177.877C235.06 177.469 234.824 176.752 235.114 176.204C235.409 175.648 236.142 175.447 236.758 175.574ZM90.0673 155.972C89.8989 156.272 89.9327 156.641 89.972 156.984L90.8878 165.05C91.3852 169.428 92.0364 174.145 95.0962 177.315C95.6062 177.073 95.3184 176.306 94.9969 175.842C92.5182 172.265 92.0409 167.718 91.6387 163.385C91.4034 160.845 91.1675 158.306 90.9321 155.765C90.6952 155.515 90.2361 155.671 90.0673 155.972ZM253.226 172.496C261.632 172.703 270.038 172.91 278.444 173.118C279.73 173.15 281.021 173.182 282.294 173.373C282.028 174.292 280.82 174.465 279.863 174.456C271.433 174.377 262.976 173.855 254.591 174.731C253.874 174.807 253.1 174.88 252.478 174.516C251.856 174.152 251.578 173.153 252.15 172.715C252.446 172.487 252.852 172.487 253.226 172.496ZM230.129 170.844C230.315 170.905 230.504 170.969 230.655 171.092C231.157 171.501 230.971 172.375 230.456 172.769C229.942 173.163 229.25 173.209 228.602 173.225C227.928 173.242 227.142 173.189 226.758 172.634C226.275 171.938 226.848 170.909 227.647 170.626C228.445 170.344 229.325 170.58 230.129 170.844ZM236.276 169.145C237.059 169.23 237.822 169.504 238.48 169.939C238.983 170.272 238.883 171.106 238.425 171.498C237.968 171.89 237.315 171.945 236.713 171.924C236.104 171.901 235.468 171.809 234.975 171.45C234.483 171.092 234.19 170.399 234.454 169.85C234.755 169.223 235.584 169.071 236.276 169.145ZM151.592 149.961C151.134 156.559 150.929 163.174 150.977 169.788C150.979 170.067 151.17 170.464 151.408 170.319C151.915 164.76 152.163 159.178 152.153 153.596C152.15 152.359 152.125 151.077 151.592 149.961ZM142.606 166.887C143.327 166.941 143.963 167.36 144.551 167.782C144.732 167.911 144.919 168.05 145.019 168.248C145.229 168.659 144.978 169.188 144.584 169.429C144.19 169.669 143.703 169.688 143.242 169.667C142.194 169.617 140.876 169.047 140.993 168.005C141.074 167.285 141.885 166.832 142.606 166.887ZM238.022 162.442C238.724 162.731 239.446 163.483 239.083 164.149C238.838 164.601 238.24 164.698 237.726 164.703C237.13 164.709 236.533 164.661 235.945 164.558C235.119 164.414 234.992 163.114 235.634 162.573C236.276 162.033 237.246 162.124 238.022 162.442ZM319.822 149.533C320.111 150.017 320.116 150.614 320.112 151.178C320.088 155.17 320.063 159.162 320.039 163.155C320.036 163.639 319.971 164.227 319.53 164.431C319.15 164.607 318.682 164.36 318.47 163.998C318.258 163.636 318.239 163.197 318.232 162.778C318.171 159.214 318.568 155.564 317.558 152.146C317.258 151.13 316.9 149.861 317.684 149.149C318.297 148.593 319.397 148.822 319.822 149.533ZM217.179 149.07C214.153 150.948 210.969 152.879 207.417 153.135C206.771 153.181 206.48 153.954 206.352 154.589C205.779 157.447 205.462 160.356 205.408 163.27C205.404 163.449 205.406 163.64 205.509 163.786C205.673 164.017 206.007 164.026 206.29 164.012C209.061 163.867 211.87 163.577 214.444 162.54C217.018 161.502 219.359 159.623 220.408 157.054C221.457 154.484 220.953 151.208 218.811 149.443C218.35 149.064 217.686 148.756 217.179 149.07ZM194.011 160.308C194.983 160.563 195.955 160.819 196.927 161.075C197.291 161.17 197.695 161.296 197.869 161.629C198.073 162.022 197.835 162.528 197.465 162.77C197.095 163.012 196.634 163.058 196.193 163.098C195.494 163.16 194.775 163.22 194.104 163.013C193.434 162.807 192.816 162.266 192.739 161.568C192.662 160.871 193.332 160.13 194.011 160.308ZM59.1328 107.106C62.7716 108.579 65.5109 111.768 67.2099 115.307C68.9083 118.847 69.682 122.749 70.3563 126.617C71.4722 133.019 72.3607 139.553 71.5473 146C70.7333 152.447 68.0384 158.876 63.0423 163.031C66.6817 163.225 71.0272 163.081 73.0028 160.019C73.8894 158.644 75.798 158.036 77.3161 158.644C76.3615 157.818 77.0822 156.282 77.7908 155.238C80.6934 150.959 82.6852 146.041 83.3968 140.92C84.7773 130.99 81.3072 120.926 76.1589 112.324C72.8184 106.742 65.027 104.354 59.1328 107.106ZM145.416 158.545C146.167 158.84 145.992 160.081 145.291 160.48C144.588 160.878 143.714 160.699 142.932 160.501C142.567 160.407 142.18 160.299 141.932 160.016C141.354 159.354 142.018 158.236 142.874 158.038C143.73 157.841 144.599 158.223 145.416 158.545ZM172.412 110.761C169.199 110.818 165.827 111.209 163.204 113.066C162.336 113.68 161.549 114.484 161.232 115.498C160.915 116.512 161.182 117.759 162.062 118.355C164.285 119.861 165.192 122.679 165.609 125.332C166.026 127.985 166.126 130.764 167.335 133.163C167.958 134.399 168.853 135.478 169.79 136.498C174.874 142.026 181.506 146.115 188.728 148.176C189.997 148.539 191.613 149.323 191.345 150.616C180.954 148.436 171.479 142.167 165.413 133.454C163.569 139.116 159.933 144.18 155.156 147.735C164.473 155.664 176.53 160.309 188.759 160.681C189.312 160.699 189.939 160.677 190.313 160.268C190.558 160 190.635 159.624 190.701 159.266C192.432 149.959 193.652 140.556 194.353 131.115C194.593 127.885 194.769 124.602 194.071 121.44C193.373 118.277 191.688 115.203 188.934 113.498C187.237 112.448 185.251 111.976 183.286 111.626C179.701 110.987 176.054 110.696 172.412 110.761ZM236.254 156.058C237.096 156.059 238.159 156.305 238.307 157.134C238.454 157.96 237.513 158.576 236.68 158.683C236.07 158.76 235.409 158.687 234.925 158.308C234.442 157.929 234.217 157.186 234.553 156.672C234.897 156.144 235.624 156.057 236.254 156.058ZM298.5 139.461C296.954 145.45 296.052 151.585 295.152 157.705C295.107 158.01 295.081 158.37 295.311 158.575C297.721 155.58 299.932 152.425 301.925 149.138C302.122 148.814 302.315 148.389 302.094 148.08C301.595 147.382 301.096 146.684 300.597 145.986C300.226 145.469 299.844 144.786 300.17 144.239C300.435 143.794 301.028 143.7 301.544 143.652L305.778 143.263C305.732 143 305.573 142.774 305.417 142.558C304.284 140.98 303.047 139.321 301.232 138.629C300.225 138.245 298.77 138.418 298.5 139.461ZM102.378 77.4952C99.2824 78.0149 95.9293 78.91 94.133 81.4839C93.1275 82.9248 92.7576 84.704 92.4623 86.4357C91.3005 93.2473 90.9377 100.195 91.3837 107.091C104.729 100.882 120.343 99.7025 134.469 103.836C135.667 104.187 137.15 105.25 136.521 106.328C125.924 102.408 114.121 101.824 103.189 104.677C99.6518 105.6 96.214 106.87 92.6971 107.867C87.4696 109.35 82.0713 110.226 76.6437 110.473C86.5287 123.894 87.8078 143.112 79.7887 157.724C84.7783 156.78 89.466 154.684 94.0665 152.534C100.935 149.324 107.773 145.939 115.069 143.879C122.365 141.819 130.254 141.145 137.491 143.404C138.337 143.668 138.804 142.446 138.837 141.56L140.406 100.473C140.644 94.2487 140.663 87.3666 136.588 82.6557C132.983 78.4871 127.103 77.1833 121.611 76.7146C115.201 76.1672 108.722 76.4303 102.378 77.4952ZM197.987 153.755C198.189 153.887 198.399 154.054 198.446 154.291C198.542 154.773 197.956 155.079 197.484 155.213C196.798 155.408 196.091 155.603 195.382 155.528C194.672 155.453 193.951 155.046 193.717 154.372C193.485 153.698 193.953 152.813 194.666 152.8C195.835 152.779 197.008 153.116 197.987 153.755ZM298.646 127.901C296.064 129.348 292.98 129.877 290.064 129.372C290.437 130.413 292.072 130.775 292.081 131.88C292.086 132.553 291.452 133.027 291.091 133.595C290.814 134.032 290.694 134.549 290.583 135.054C289.544 139.812 288.948 144.666 288.804 149.533C288.779 150.372 288.988 151.48 289.822 151.571C291.55 151.761 293.177 152.729 294.167 154.158C294.978 149.054 295.788 143.951 296.599 138.847C296.788 137.663 296.946 136.34 296.252 135.362C295.298 134.017 296.129 132.174 296.966 130.752L298.646 127.901ZM144.942 149.96C145.823 150.136 146.825 150.897 146.492 151.731C146.286 152.245 145.665 152.453 145.112 152.482C144.559 152.512 143.984 152.429 143.467 152.626C142.857 152.857 142.14 152.317 142.066 151.67C141.991 151.023 142.441 150.394 143.028 150.11C143.614 149.826 144.303 149.832 144.942 149.96ZM236.243 149.172C236.799 149.249 237.384 149.371 237.789 149.759C238.193 150.148 238.304 150.888 237.874 151.248C237.732 151.366 237.552 151.429 237.377 151.489C236.614 151.75 235.797 152.005 235.015 151.811C234.232 151.618 233.551 150.787 233.822 150.027C234.134 149.151 235.322 149.045 236.243 149.172ZM286.806 138.68C286.218 138.821 285.789 139.312 285.401 139.777L283.065 142.574C282.609 143.121 283.412 143.883 284.122 143.942C284.831 144.002 285.661 143.835 286.166 144.337C286.695 144.863 286.477 145.78 286.043 146.387C285.61 146.995 284.996 147.491 284.734 148.19C284.342 149.234 284.99 150.543 286.058 150.865C286.638 151.039 287.452 150.771 287.457 150.165C287.487 146.624 287.694 143.084 288.077 139.564C288.143 138.963 287.394 138.538 286.806 138.68ZM168.283 140.438C168.731 140.736 169.02 141.211 169.318 141.658C171.881 145.495 176.167 148.133 180.747 148.69C181.807 148.819 183.057 148.948 183.588 149.874C182.59 150.862 180.964 150.742 179.596 150.424C174.746 149.295 170.303 146.493 167.194 142.604C166.698 141.984 166.246 141.041 166.799 140.471C167.173 140.085 167.835 140.141 168.283 140.438ZM284.287 123.483C280.862 124.324 277.443 125.512 274.667 127.687C271.892 129.862 269.827 133.168 269.849 136.694C269.877 141.166 267.679 145.598 264.103 148.284L270.124 148.992C270.829 149.075 271.62 149.135 272.172 148.689C272.979 148.036 272.772 146.782 272.569 145.764C272.365 144.746 272.409 143.4 273.378 143.026C274.581 142.561 275.577 144.229 275.394 145.506C275.212 146.783 274.471 148.011 274.703 149.28C277.555 149.685 280.415 150.025 283.282 150.303C282.712 149.834 282.65 148.947 282.938 148.268C283.227 147.589 283.787 147.069 284.332 146.571C284.912 146.041 284.075 145.106 283.294 145.022C282.513 144.938 281.593 145.125 281.042 144.565C280.357 143.868 280.871 142.699 281.455 141.916C282.59 140.395 283.995 138.562 283.266 136.811C281.485 132.542 281.877 127.431 284.287 123.483ZM152.954 111.817C152.477 123.504 152.542 135.214 153.15 146.896C157.614 144.473 160.876 140.21 162.899 135.551C164.134 132.708 164.96 129.576 164.466 126.516C164.098 124.235 163.018 122.127 161.762 120.187C159.535 116.746 156.626 113.64 152.954 111.817ZM256.477 106.218C258.08 105.922 259.306 107.902 259.033 109.509C258.76 111.116 257.591 112.394 256.662 113.734C255.38 115.586 254.503 117.682 253.635 119.761C251.57 124.706 250.766 130.173 251.32 135.504C251.646 138.642 252.506 141.866 254.629 144.201C256.751 146.536 260.388 147.704 263.185 146.242C265.587 144.987 266.785 142.219 267.336 139.566C267.886 136.912 267.984 134.135 269.025 131.632C270.945 127.016 275.679 124.227 280.362 122.476C273.322 121.52 266.953 116.615 264.229 110.053C263.449 108.171 262.863 106.049 261.243 104.814C259.622 103.578 256.572 104.183 256.477 106.218ZM196.97 143.867C197.465 143.962 197.951 144.106 198.418 144.296C199.188 144.609 200.016 145.476 199.52 146.144C199.25 146.509 198.73 146.553 198.276 146.565C197.447 146.586 196.553 146.589 195.877 146.11C195.2 145.632 194.966 144.474 195.648 144.004C196.023 143.746 196.523 143.781 196.97 143.867ZM234.292 141.894C234.963 141.951 235.63 142.044 236.291 142.173C236.617 142.236 236.97 142.325 237.175 142.587C237.486 142.984 237.29 143.606 236.897 143.922C236.503 144.237 235.979 144.326 235.481 144.404C234.719 144.523 233.907 144.636 233.205 144.319C232.502 144.002 232.022 143.074 232.452 142.434C232.826 141.875 233.623 141.837 234.292 141.894ZM42.6877 138.289C42.12 138.283 41.9236 139.041 41.9409 139.608C41.9904 141.239 42.3204 142.861 42.9123 144.381C43.077 144.549 43.2683 144.198 43.2453 143.964L42.6877 138.289ZM151.774 142.488C151.42 142.68 151.285 143.189 151.497 143.531L151.506 143.543L151.498 143.552C151.489 143.563 151.479 143.577 151.468 143.593C151.325 143.809 151.525 144.151 151.783 144.133C151.957 143.602 151.954 143.016 151.774 142.488ZM144.395 140.179C145.164 140.349 145.997 140.987 145.806 141.75C145.68 142.256 145.147 142.553 144.638 142.665C144.13 142.778 143.592 142.771 143.106 142.96C142.488 143.2 141.743 142.701 141.616 142.051C141.489 141.4 141.888 140.721 142.463 140.391C143.038 140.061 143.748 140.036 144.395 140.179ZM148.841 32.5253C148.886 67.7081 149.694 102.89 151.265 138.038L151.43 141.672L151.455 140.503C151.5 137.771 151.461 135.038 151.42 132.306C150.951 100.281 150.482 68.2554 150.013 36.2297C149.994 34.8891 149.888 33.363 148.841 32.5253ZM199.164 135.034C199.594 135.163 200.027 135.359 200.306 135.712C200.586 136.064 200.666 136.606 200.389 136.961C200.122 137.304 199.637 137.369 199.203 137.408L197.352 137.572C197.049 137.599 196.724 137.621 196.461 137.469C196.248 137.346 196.108 137.122 196.043 136.886C195.849 136.172 196.331 135.399 196.998 135.081C197.665 134.764 198.455 134.823 199.164 135.034ZM50.0623 107.494C48.1378 109.385 47.1368 111.999 46.212 114.533C43.6349 121.596 41.1858 129.092 42.4574 136.502C42.8506 136.574 43.038 136.039 43.0671 135.641C43.5899 128.492 45.0184 121.41 47.3076 114.618C48.1811 112.027 49.2317 109.395 51.1721 107.468C51.1454 106.998 50.3976 107.164 50.0623 107.494ZM286.655 122.944C286.319 123.026 286.102 123.343 285.927 123.64C284.271 126.451 283.491 129.769 283.722 133.023C283.817 134.366 284.25 135.913 285.504 136.403C286.524 135.424 287.545 134.445 288.565 133.465C288.726 133.31 288.892 133.149 288.982 132.943C289.206 132.428 288.886 131.853 288.592 131.374C287.138 129.009 286.046 126.01 287.257 123.512C287.408 123.201 286.991 122.861 286.655 122.944ZM307.85 119.912C307.687 119.997 307.561 120.137 307.44 120.275C304.429 123.68 301.521 127.177 298.721 130.758C298.136 131.506 297.526 132.349 297.584 133.297C297.635 134.139 298.227 134.873 298.946 135.316C299.664 135.759 300.5 135.961 301.321 136.157C301.541 136.209 301.78 136.26 301.986 136.168C302.176 136.084 302.297 135.898 302.406 135.721C304.121 132.957 305.859 130.139 306.668 126.989C306.841 126.317 307.423 125.848 307.889 125.334C308.803 124.324 309.339 122.979 309.37 121.617C309.38 121.156 309.326 120.669 309.059 120.293C308.792 119.916 308.259 119.698 307.85 119.912ZM234.515 133.392C234.93 133.495 235.388 133.652 235.574 134.037C235.902 134.715 235.132 135.422 234.412 135.645C233.854 135.818 233.232 135.878 232.697 135.644C232.162 135.41 231.756 134.82 231.878 134.248C232.093 133.235 233.509 133.143 234.515 133.392ZM145.082 131.912C145.278 132.087 145.459 132.294 145.533 132.546C145.683 133.053 145.329 133.613 144.842 133.822C144.356 134.03 143.789 133.95 143.299 133.75C142.783 133.54 142.28 133.137 142.215 132.584C142.14 131.951 142.713 131.369 143.344 131.278C143.974 131.186 144.608 131.486 145.082 131.912ZM200.888 126.348C201.391 126.554 201.444 127.315 201.096 127.733C200.75 128.151 200.171 128.29 199.629 128.336C199.088 128.381 198.528 128.361 198.022 128.56C197.244 128.864 196.399 127.924 196.584 127.111C196.769 126.297 197.644 125.791 198.477 125.752C199.311 125.713 200.115 126.033 200.888 126.348ZM233.652 125.124C234.366 125.159 235.072 125.347 235.708 125.67C235.984 125.81 236.27 126.004 236.349 126.304C236.51 126.922 235.736 127.345 235.109 127.465C234.554 127.572 233.99 127.636 233.425 127.655C232.727 127.68 231.885 127.545 231.608 126.904C231.391 126.407 231.654 125.797 232.096 125.483C232.538 125.168 233.111 125.098 233.652 125.124ZM279.647 79.5581C275.484 80.2299 271.304 80.7864 267.111 81.2274C264.073 81.5464 261.213 83.2696 259.511 85.8052C259.161 86.3263 258.92 87.1574 259.46 87.477C260.988 85.714 263.063 84.4308 265.323 83.8512C266.131 83.644 267.015 83.5311 267.777 83.8703C268.539 84.21 269.083 85.1445 268.738 85.9035C268.209 87.0697 266.521 86.7436 265.243 86.6655C261.688 86.4488 258.613 90.5171 259.793 93.8778C260.62 90.6698 265.2 89.2772 267.767 91.3714C270.334 93.4655 270.02 98.065 267.275 99.9192C266.367 100.532 265.203 100.959 264.788 101.973C264.434 102.841 264.775 103.823 265.116 104.697C265.65 106.07 266.185 107.443 266.719 108.815C267.84 111.694 269.03 114.677 271.298 116.773C273.042 118.385 275.304 119.344 277.612 119.906C285.931 121.934 295.296 118.707 300.601 111.985C301.026 111.447 301.996 111.958 302.072 112.64C302.147 113.322 301.681 113.935 301.22 114.443C298.845 117.057 295.851 119.106 292.554 120.373C290.995 120.971 289.143 121.619 288.664 123.219C288.267 124.543 289.102 126.007 290.301 126.696C291.499 127.385 292.96 127.444 294.335 127.293C297.076 126.994 299.728 125.921 301.907 124.23C302.567 123.718 303.206 123.119 303.5 122.337C303.777 121.595 303.714 120.776 303.647 119.987L303.588 119.309C303.331 116.369 302.998 113.394 301.8 110.705C301.223 109.411 300.451 108.199 300.027 106.848C299.503 105.181 299.535 103.394 299.183 101.683C298.831 99.9726 297.94 98.1955 296.311 97.565C296.741 96.4724 297.815 95.7844 298.51 94.8374C299.205 93.8904 299.307 92.2362 298.213 91.8083C297.69 91.6037 297.094 91.7801 296.595 92.0392C294.494 93.1303 293.36 95.801 294.035 98.0705C294.475 99.5518 292.135 100.546 290.875 99.6506C289.615 98.756 289.304 97.0525 289.056 95.5274C288.093 89.6149 286.16 83.2413 281.111 80.0183C280.669 79.737 280.163 79.475 279.647 79.5581ZM144.641 121.496C145.305 121.711 145.966 122.308 145.828 122.992C145.698 123.638 144.953 123.941 144.303 124.053C143.381 124.21 142.178 124.03 141.918 123.13C141.672 122.275 142.567 121.455 143.453 121.361C143.852 121.319 144.259 121.372 144.641 121.496ZM251.104 109.182C250.485 109.768 250.184 110.606 249.903 111.41C249.268 113.227 248.625 115.096 248.698 117.018C248.746 118.256 248.027 119.37 247.515 120.498C247.003 121.625 246.725 123.069 247.528 124.011C249.447 122.398 249.907 119.682 250.329 117.211C250.834 114.257 251.52 111.194 253.43 108.885C252.761 108.356 251.723 108.595 251.104 109.182ZM200.544 117.415C201.037 117.574 201.596 117.891 201.602 118.41C201.61 119.041 200.833 119.331 200.212 119.445C199.901 119.502 199.59 119.559 199.279 119.616C198.486 119.761 197.636 119.9 196.899 119.574C196.162 119.247 195.671 118.252 196.153 117.606C196.464 117.187 197.036 117.073 197.556 117.041C198.564 116.979 199.583 117.106 200.544 117.415ZM128.437 108.302C129.305 108.718 130.275 109.535 129.954 110.441C121.015 108.493 111.466 109.456 103.097 113.152C99.3313 114.815 95.7967 117.014 91.8993 118.339C90.5662 118.793 89.1102 119.141 87.7635 118.73C86.4163 118.319 85.2934 116.889 85.687 115.537C86.0569 114.268 87.4701 113.665 88.7226 113.241C94.8941 111.151 101.173 109.38 107.527 107.934C114.459 106.358 122.024 105.235 128.437 108.302ZM256.783 108.195C256.145 108.193 255.608 108.661 255.189 109.142C254.171 110.308 253.447 111.707 252.909 113.159C252.24 114.962 251.845 116.867 251.74 118.787C253.589 115.608 255.564 112.503 257.662 109.482C258.026 108.957 257.421 108.198 256.783 108.195ZM245.457 113.859C245.282 113.86 245.098 113.867 244.949 113.961C244.617 114.172 244.663 114.665 244.762 115.046C245.075 116.256 245.508 117.435 246.054 118.56C246.381 116.975 246.907 115.431 247.615 113.976C246.899 113.894 246.178 113.855 245.457 113.859ZM105.392 109.774C100.101 111.4 94.8099 113.026 89.5194 114.652C88.8874 114.846 88.1541 115.146 88.019 115.794C88.4494 116.421 89.2689 116.688 90.029 116.651C90.789 116.614 91.5102 116.322 92.2148 116.035C97.5824 113.841 102.95 111.648 108.318 109.455C107.359 109.187 106.343 109.482 105.392 109.774ZM161.224 112.742C160.94 113.235 160.349 113.444 159.905 113.8C159.462 114.157 159.202 114.925 159.67 115.249C160.386 114.531 161.103 113.813 161.82 113.096C161.672 112.912 161.456 112.784 161.224 112.742ZM217.048 112.36C220.894 112.761 224.774 112.965 228.627 112.633C229.623 112.547 230.815 112.507 231.407 113.314C230.661 114.075 229.486 114.166 228.422 114.212C224.423 114.383 220.424 114.554 216.426 114.726C215.646 114.759 214.658 114.66 214.405 113.921C214.205 113.34 214.659 112.698 215.227 112.465C215.796 112.231 216.437 112.296 217.048 112.36ZM276.505 108.158C277.436 109.29 277.775 110.882 277.388 112.295C277.293 112.644 277.153 112.986 276.93 113.271C276.345 114.018 275.265 114.238 274.342 114.018C273.42 113.796 272.63 113.209 271.926 112.573C271.2 111.918 270.519 111.171 270.171 110.257C269.822 109.344 269.863 108.232 270.481 107.475C270.99 106.85 271.813 106.55 272.617 106.492C274.078 106.385 275.575 107.026 276.505 108.158ZM146.859 110.789C147.227 111.086 147.165 111.703 146.851 112.056C146.538 112.409 146.06 112.56 145.601 112.674C145.06 112.81 144.491 112.915 143.948 112.786C143.405 112.657 142.896 112.236 142.83 111.682C142.733 110.879 143.573 110.25 144.373 110.124C145.246 109.986 146.172 110.234 146.859 110.789ZM272.247 108.425C271.84 108.952 272.107 109.904 272.768 109.994C273.531 110.099 274.125 110.9 274.002 111.66C273.905 112.257 274.633 112.755 275.21 112.576C275.787 112.397 276.121 111.75 276.108 111.145C276.096 110.541 275.807 109.978 275.48 109.47C275.12 108.909 274.679 108.365 274.071 108.092C273.463 107.819 272.655 107.897 272.247 108.425ZM270.216 54.2467C264.671 55.2623 259.179 57.684 255.603 62.0411C252.027 66.3977 250.79 72.9184 253.586 77.8128C254.574 79.5425 256.082 81.051 257.979 81.6598C259.875 82.2686 262.169 81.8206 263.434 80.2819C264.87 78.537 267.767 80.2108 269.927 79.5485C272.915 78.6323 276.021 78.1006 279.144 77.9705C279.884 77.9398 280.648 77.9352 281.339 78.2034C282.089 78.4942 282.681 79.0773 283.251 79.6448C285.228 81.6139 287.245 83.6405 288.415 86.1731C290.271 90.19 289.812 95.0874 292.156 98.8401C292.429 96.487 292.703 94.1338 292.977 91.7806C293.079 90.9072 293.192 90.0005 293.664 89.2591C294.136 88.5172 295.08 87.9971 295.906 88.297C297.363 88.8267 298.881 89.3952 299.927 90.5398C300.973 91.6844 301.36 93.5925 300.355 94.7729C299.382 95.9134 300.485 97.562 301.001 98.9692C301.895 101.407 300.844 104.192 301.547 106.691C302.129 108.761 303.811 110.307 305.418 111.736C305.888 112.154 306.435 112.6 307.062 112.542C307.586 112.495 308.007 112.104 308.366 111.718C310.501 109.416 311.964 106.497 312.529 103.409C312.758 102.163 312.324 100.348 311.069 100.517C311.412 97.5277 314.16 95.4911 315.775 92.9509C317.515 90.2117 317.926 86.8429 318.006 83.5982C318.086 80.3373 317.767 76.7932 315.594 74.3604C312.983 71.4377 307.91 71.2189 305.058 73.9068C304.346 74.5766 303.409 75.4621 302.561 74.9773C303.226 73.7848 303.891 72.5918 304.556 71.3994C305.639 69.4554 306.745 67.4415 306.966 65.2274C307.401 60.8582 304.075 56.7219 299.962 55.1852C295.849 53.649 291.206 54.286 287.08 55.7885C286.046 56.1655 284.824 56.9744 285.105 58.0383C285.267 58.6547 285.891 59.0267 286.211 59.5775C286.411 59.9213 286.391 60.0311 286.166 60.3089C286.029 60.4772 285.784 60.963 285.563 60.8683C283.224 58.1593 280.694 55.3233 277.265 54.2991C274.992 53.6198 272.55 53.8193 270.216 54.2467ZM243.652 110.114C243.359 109.941 242.8 109.827 242.854 110.162C243.013 110.983 243.751 111.593 244.548 111.844C245.345 112.095 246.201 112.053 247.036 112.008C247.362 111.99 247.71 111.965 247.969 111.766C248.187 111.6 248.307 111.339 248.417 111.088C248.607 110.659 248.798 110.23 248.988 109.801C247.437 108.791 245.244 111.057 243.652 110.114ZM198.871 107.311C199.523 107.36 200.17 107.474 200.8 107.65C201.346 107.803 201.973 108.123 202 108.689C202.035 109.434 201.066 109.738 200.323 109.803C199.566 109.868 198.81 109.933 198.053 109.999C197.502 110.046 196.879 110.071 196.474 109.694C195.929 109.188 196.149 108.207 196.738 107.755C197.328 107.302 198.13 107.255 198.871 107.311ZM216.561 107.149C220.179 107.633 223.846 107.75 227.487 107.497C227.915 107.467 228.38 107.442 228.732 107.686C229.084 107.931 229.171 108.56 228.787 108.75C228.671 108.807 228.536 108.813 228.407 108.818C224.004 108.984 219.602 109.15 215.2 109.317C214.799 109.332 214.357 109.334 214.048 109.077C213.495 108.617 213.812 107.633 214.446 107.293C215.08 106.953 215.849 107.054 216.561 107.149ZM251.688 103.563C250.283 103.639 248.853 103.769 247.555 104.315C246.257 104.859 245.093 105.885 244.706 107.238C244.627 107.513 244.598 107.851 244.808 108.044C244.973 108.194 245.22 108.196 245.442 108.187C247.776 108.096 250.101 107.748 252.361 107.153C253.484 106.857 254.838 106.143 254.686 104.991C254.606 104.385 254.083 103.91 253.505 103.71C252.928 103.509 252.299 103.53 251.688 103.563ZM89.5441 103.394C89.3203 104.58 89.2654 105.798 89.3823 106.999C89.6726 107.313 90.0547 106.701 90.03 106.274C89.974 105.3 89.8107 104.332 89.5441 103.394ZM164.722 101.943C172.815 102.309 180.908 102.675 189 103.04C189.756 103.075 190.759 103.364 190.715 104.119C189.749 104.739 188.503 104.61 187.363 104.478C180.149 103.637 172.851 103.521 165.613 104.132C164.989 104.185 164.325 104.235 163.768 103.949C163.21 103.662 162.85 102.898 163.212 102.386C163.529 101.938 164.174 101.919 164.722 101.943ZM145.098 101.095C145.454 101.148 145.825 101.241 146.084 101.492C146.675 102.065 146.31 103.154 145.599 103.569C144.888 103.984 144.007 103.926 143.186 103.855C142.286 103.777 141.994 102.427 142.586 101.744C143.177 101.06 144.205 100.959 145.098 101.095ZM173.561 98.1013C186.751 98.7852 199.94 99.4696 213.129 100.154C213.836 100.19 214.771 100.462 214.734 101.169C212.559 101.56 210.307 101.517 208.148 101.041L210.065 102.69C209.151 103.266 208.178 103.861 207.098 103.885C206.018 103.909 204.843 103.113 204.873 102.033C205.42 101.781 205.966 101.529 206.512 101.276C195.858 100.364 185.153 100.031 174.463 100.28C173.846 100.294 173.187 100.299 172.667 99.9686C172.146 99.638 171.882 98.8336 172.313 98.3926C172.621 98.0771 173.121 98.0781 173.561 98.1013ZM258.965 99.8648C258.489 99.891 258.086 100.206 257.718 100.508C257.281 100.865 256.844 101.223 256.408 101.58C255.95 101.954 255.455 102.401 255.428 102.991C255.414 103.312 255.657 103.692 255.97 103.62C256.057 103.6 256.133 103.547 256.206 103.496C257.246 102.762 258.286 102.028 259.327 101.295C259.539 101.145 259.766 100.975 259.834 100.725C259.96 100.266 259.44 99.8386 258.965 99.8648ZM275.144 96.0218C275.185 97.0918 274.654 98.0942 274.465 99.1481C274.276 100.202 274.636 101.544 275.678 101.791C275.985 101.864 276.074 102.303 275.901 102.567C275.727 102.831 275.4 102.945 275.089 103.001C274.123 103.177 272.98 102.867 272.537 101.992C272.315 101.554 272.297 101.044 272.285 100.553C272.251 99.2383 272.217 97.9239 272.184 96.6094C272.16 95.7108 272.261 94.604 273.084 94.2411C274.064 93.8092 275.102 94.9518 275.144 96.0218ZM260.797 101.985C260.607 102.074 260.477 102.279 260.479 102.489L260.432 102.502C260.537 102.736 260.917 102.772 261.065 102.563C261.214 102.353 261.053 102.007 260.797 101.985ZM258.977 95.1146C258.541 95.1257 258.053 95.2048 257.795 95.5571C257.519 95.9336 257.631 96.486 257.914 96.8569C258.198 97.2279 258.615 97.4662 259.005 97.7233C260.646 98.8059 261.956 100.382 262.719 102.194C263.239 101.51 263.758 100.827 264.277 100.143C264.665 99.6329 265.074 99.0488 264.993 98.4133C264.934 97.9536 264.625 97.5676 264.298 97.24C262.91 95.8514 260.94 95.0647 258.977 95.1146ZM91.6992 84.5391C91.0894 84.589 90.7729 85.274 90.5813 85.8551C90.289 86.7406 89.9967 87.6261 89.7049 88.5117C89.3853 89.4793 89.0638 90.4576 88.9766 91.4727C88.9181 92.145 88.9645 92.8219 89.0104 93.4957C89.154 95.5994 89.2972 97.7031 89.4408 99.8063C89.4685 100.213 89.778 100.774 90.1141 100.545C89.9745 95.171 90.5083 89.7807 91.6992 84.5391ZM264.227 92.274C263.674 92.4852 263.086 92.8557 263.006 93.4428C262.926 94.03 263.79 94.5748 264.125 94.0859C264.553 93.4625 265.623 93.7881 265.976 94.4564C266.33 95.1247 266.226 95.9285 266.221 96.685C266.215 97.441 266.389 98.3084 267.048 98.6789C267.159 97.6673 267.27 96.6558 267.38 95.6443C267.517 94.3959 267.509 92.8471 266.411 92.2357C265.754 91.8698 264.931 92.0064 264.227 92.274ZM282.008 91.7025C282.906 91.7428 283.866 92.0558 284.357 92.8093C284.849 93.5628 284.588 94.7971 283.722 95.0395C282.486 95.3857 281.33 93.6439 280.122 94.0763C279.366 94.347 278.899 95.4099 278.111 95.2572C277.623 95.163 277.352 94.5773 277.449 94.0894C277.547 93.6011 277.911 93.2105 278.301 92.901C279.341 92.0775 280.683 91.6435 282.008 91.7025ZM144.386 90.8129C145.252 90.953 146.1 91.9016 145.644 92.651C145.515 92.8612 145.307 93.0109 145.089 93.1253C144.549 93.4096 143.882 93.5063 143.324 93.2583C142.766 93.0104 142.374 92.3668 142.525 91.7756C142.715 91.0322 143.629 90.6905 144.386 90.8129ZM283.417 85.8808C284.013 86.4478 284.477 87.5153 283.81 87.9961C283.104 88.5051 282.258 87.6458 281.582 87.0974C280.828 86.4846 279.805 86.2139 278.845 86.3732C278.232 86.4755 277.654 86.7421 277.039 86.8313C276.423 86.9205 275.707 86.7794 275.371 86.2558C275.019 85.7069 275.243 84.9297 275.728 84.4928C276.212 84.0563 276.885 83.896 277.535 83.8371C279.666 83.642 281.866 84.4066 283.417 85.8808ZM144.356 84.1435C144.888 84.4555 145.175 85.1908 144.879 85.7316C144.487 86.4463 143.462 86.4367 142.671 86.2401C142.386 86.1696 142.087 86.0758 141.898 85.8511C141.448 85.3143 141.953 84.4726 142.581 84.1627C143.134 83.8895 143.824 83.8315 144.356 84.1435Z" fill="#00160A"/>
<path fill-rule="evenodd" clip-rule="evenodd" d="M72.9546 156.027C73.0272 156.229 73.0942 156.455 73.011 156.652C72.8618 157.007 72.3765 157.021 71.9914 157.018C69.2845 156.996 66.7675 159.321 66.5754 162.022C66.5553 162.307 66.1632 162.438 65.9092 162.305C65.6556 162.173 65.5251 161.888 65.4374 161.615C64.943 160.081 65.2615 158.361 66.0498 156.955C66.8385 155.548 68.0582 154.427 69.3837 153.509C69.8978 153.153 70.5384 152.811 71.12 153.04C71.5041 153.193 71.7551 153.559 71.9647 153.915C72.3588 154.587 72.6905 155.294 72.9546 156.027ZM71.3821 155.72C71.1437 154.99 70.1765 154.729 69.4543 154.986C68.7321 155.244 68.2054 155.858 67.714 156.446C67.2478 157.005 66.7604 157.614 66.7055 158.338C67.9509 157.02 69.606 156.092 71.3821 155.72Z" fill="#FFB61D"/>
</svg>
