<svg width="20" height="16" viewBox="0 0 20 16" fill="none" xmlns="http://www.w3.org/2000/svg">
<path d="M19.9603 7.76818C19.1762 5.69385 17.8149 3.89997 16.0447 2.60824C14.2745 1.31652 12.1731 0.583572 10 0.5C7.82695 0.583572 5.72547 1.31652 3.9553 2.60824C2.18512 3.89997 0.823847 5.69385 0.0397175 7.76818C-0.0132392 7.91798 -0.0132392 8.08202 0.0397175 8.23182C0.823847 10.3061 2.18512 12.1 3.9553 13.3918C5.72547 14.6835 7.82695 15.4164 10 15.5C12.1731 15.4164 14.2745 14.6835 16.0447 13.3918C17.8149 12.1 19.1762 10.3061 19.9603 8.23182C20.0132 8.08202 20.0132 7.91798 19.9603 7.76818ZM10 14.1364C6.46657 14.1364 2.73313 11.4568 1.37976 8C2.73313 4.54318 6.46657 1.86364 10 1.86364C13.5334 1.86364 17.2669 4.54318 18.6202 8C17.2669 11.4568 13.5334 14.1364 10 14.1364Z" fill="#9554FE"/>
<path d="M10.0001 3.90918C9.20897 3.90918 8.43559 4.14911 7.77777 4.59862C7.11996 5.04814 6.60725 5.68705 6.30449 6.43457C6.00173 7.18208 5.92252 8.00463 6.07686 8.79819C6.23121 9.59174 6.61218 10.3207 7.17161 10.8928C7.73103 11.4649 8.44379 11.8545 9.21973 12.0124C9.99568 12.1702 10.8 12.0892 11.5309 11.7796C12.2618 11.47 12.8865 10.9456 13.3261 10.2729C13.7656 9.60013 14.0002 8.80919 14.0002 8.00009C14.0002 6.91511 13.5788 5.87457 12.8286 5.10738C12.0785 4.34019 11.061 3.90918 10.0001 3.90918ZM10.0001 10.7274C9.47268 10.7274 8.9571 10.5674 8.51855 10.2677C8.08001 9.96806 7.73821 9.54211 7.53637 9.04377C7.33453 8.54543 7.28172 7.99706 7.38461 7.46802C7.48751 6.93899 7.74149 6.45303 8.11444 6.07162C8.48739 5.6902 8.96256 5.43045 9.47986 5.32522C9.99716 5.21999 10.5333 5.274 11.0206 5.48042C11.5079 5.68684 11.9244 6.0364 12.2174 6.4849C12.5105 6.9334 12.6669 7.46069 12.6669 8.00009C12.6669 8.72341 12.3859 9.4171 11.8858 9.92856C11.3857 10.44 10.7074 10.7274 10.0001 10.7274Z" fill="#9554FE"/>
</svg>
