<svg width="24" height="24" viewBox="0 0 24 24" fill="none" xmlns="http://www.w3.org/2000/svg">
<path d="M9 4.99952C8.73478 4.99952 8.48043 5.10488 8.29289 5.29241C8.10536 5.47995 8 5.7343 8 5.99952C8 6.26474 8.10536 6.51909 8.29289 6.70663C8.48043 6.89416 8.73478 6.99952 9 6.99952C9.26522 6.99952 9.51957 6.89416 9.70711 6.70663C9.89464 6.51909 10 6.26474 10 5.99952C10 5.7343 9.89464 5.47995 9.70711 5.29241C9.51957 5.10488 9.26522 4.99952 9 4.99952ZM6.17 4.99952C6.3766 4.41399 6.75974 3.90695 7.2666 3.54831C7.77346 3.18967 8.37909 2.99707 9 2.99707C9.62091 2.99707 10.2265 3.18967 10.7334 3.54831C11.2403 3.90695 11.6234 4.41399 11.83 4.99952H19C19.2652 4.99952 19.5196 5.10488 19.7071 5.29241C19.8946 5.47995 20 5.7343 20 5.99952C20 6.26474 19.8946 6.51909 19.7071 6.70663C19.5196 6.89416 19.2652 6.99952 19 6.99952H11.83C11.6234 7.58505 11.2403 8.09209 10.7334 8.45073C10.2265 8.80938 9.62091 9.00197 9 9.00197C8.37909 9.00197 7.77346 8.80938 7.2666 8.45073C6.75974 8.09209 6.3766 7.58505 6.17 6.99952H5C4.73478 6.99952 4.48043 6.89416 4.29289 6.70663C4.10536 6.51909 4 6.26474 4 5.99952C4 5.7343 4.10536 5.47995 4.29289 5.29241C4.48043 5.10488 4.73478 4.99952 5 4.99952H6.17ZM15 10.9995C14.7348 10.9995 14.4804 11.1049 14.2929 11.2924C14.1054 11.4799 14 11.7343 14 11.9995C14 12.2647 14.1054 12.5191 14.2929 12.7066C14.4804 12.8942 14.7348 12.9995 15 12.9995C15.2652 12.9995 15.5196 12.8942 15.7071 12.7066C15.8946 12.5191 16 12.2647 16 11.9995C16 11.7343 15.8946 11.4799 15.7071 11.2924C15.5196 11.1049 15.2652 10.9995 15 10.9995ZM12.17 10.9995C12.3766 10.414 12.7597 9.90695 13.2666 9.54831C13.7735 9.18967 14.3791 8.99707 15 8.99707C15.6209 8.99707 16.2265 9.18967 16.7334 9.54831C17.2403 9.90695 17.6234 10.414 17.83 10.9995H19C19.2652 10.9995 19.5196 11.1049 19.7071 11.2924C19.8946 11.4799 20 11.7343 20 11.9995C20 12.2647 19.8946 12.5191 19.7071 12.7066C19.5196 12.8942 19.2652 12.9995 19 12.9995H17.83C17.6234 13.5851 17.2403 14.0921 16.7334 14.4507C16.2265 14.8094 15.6209 15.002 15 15.002C14.3791 15.002 13.7735 14.8094 13.2666 14.4507C12.7597 14.0921 12.3766 13.5851 12.17 12.9995H5C4.73478 12.9995 4.48043 12.8942 4.29289 12.7066C4.10536 12.5191 4 12.2647 4 11.9995C4 11.7343 4.10536 11.4799 4.29289 11.2924C4.48043 11.1049 4.73478 10.9995 5 10.9995H12.17ZM9 16.9995C8.73478 16.9995 8.48043 17.1049 8.29289 17.2924C8.10536 17.4799 8 17.7343 8 17.9995C8 18.2647 8.10536 18.5191 8.29289 18.7066C8.48043 18.8942 8.73478 18.9995 9 18.9995C9.26522 18.9995 9.51957 18.8942 9.70711 18.7066C9.89464 18.5191 10 18.2647 10 17.9995C10 17.7343 9.89464 17.4799 9.70711 17.2924C9.51957 17.1049 9.26522 16.9995 9 16.9995ZM6.17 16.9995C6.3766 16.414 6.75974 15.907 7.2666 15.5483C7.77346 15.1897 8.37909 14.9971 9 14.9971C9.62091 14.9971 10.2265 15.1897 10.7334 15.5483C11.2403 15.907 11.6234 16.414 11.83 16.9995H19C19.2652 16.9995 19.5196 17.1049 19.7071 17.2924C19.8946 17.4799 20 17.7343 20 17.9995C20 18.2647 19.8946 18.5191 19.7071 18.7066C19.5196 18.8942 19.2652 18.9995 19 18.9995H11.83C11.6234 19.5851 11.2403 20.0921 10.7334 20.4507C10.2265 20.8094 9.62091 21.002 9 21.002C8.37909 21.002 7.77346 20.8094 7.2666 20.4507C6.75974 20.0921 6.3766 19.5851 6.17 18.9995H5C4.73478 18.9995 4.48043 18.8942 4.29289 18.7066C4.10536 18.5191 4 18.2647 4 17.9995C4 17.7343 4.10536 17.4799 4.29289 17.2924C4.48043 17.1049 4.73478 16.9995 5 16.9995H6.17Z" fill="#83848A"/>
</svg>
