<svg width="24" height="24" viewBox="0 0 24 24" fill="none" xmlns="http://www.w3.org/2000/svg">
<path fill-rule="evenodd" clip-rule="evenodd" d="M10.1311 7.33751C10.2732 7.40585 10.3931 7.51293 10.477 7.64643C10.561 7.77993 10.6055 7.93442 10.6055 8.09212V15.9061C10.6055 16.1281 10.5173 16.3411 10.3603 16.4981C10.2033 16.6551 9.9903 16.7433 9.76826 16.7433C9.54622 16.7433 9.33327 16.6551 9.17627 16.4981C9.01926 16.3411 8.93105 16.1281 8.93105 15.9061V9.83351L7.5011 10.9788C7.4152 11.0475 7.31661 11.0986 7.21096 11.1292C7.10532 11.1597 6.99468 11.1692 6.88538 11.157C6.77607 11.1448 6.67024 11.1113 6.57391 11.0582C6.47759 11.0051 6.39266 10.9336 6.32398 10.8477C6.25531 10.7617 6.20422 10.6632 6.17364 10.5575C6.14307 10.4519 6.1336 10.3412 6.14578 10.2319C6.17037 10.0112 6.28166 9.80924 6.45515 9.67053L9.24584 7.43798C9.36898 7.33961 9.51738 7.278 9.67398 7.26022C9.83057 7.24245 9.98901 7.26924 10.1311 7.33751ZM14.5124 8.92933C14.2164 8.92933 13.9325 9.04693 13.7231 9.25628C13.5138 9.46562 13.3962 9.74955 13.3962 10.0456V13.9526C13.3962 14.2486 13.5138 14.5326 13.7231 14.7419C13.9325 14.9513 14.2164 15.0689 14.5124 15.0689C14.8085 15.0689 15.0924 14.9513 15.3018 14.7419C15.5111 14.5326 15.6287 14.2486 15.6287 13.9526V10.0456C15.6287 9.74955 15.5111 9.46562 15.3018 9.25628C15.0924 9.04693 14.8085 8.92933 14.5124 8.92933ZM11.7218 10.0456C11.7218 9.30547 12.0158 8.59564 12.5391 8.07228C13.0625 7.54893 13.7723 7.25491 14.5124 7.25491C15.2526 7.25491 15.9624 7.54893 16.4858 8.07228C17.0091 8.59564 17.3031 9.30547 17.3031 10.0456V13.9526C17.3031 14.6927 17.0091 15.4025 16.4858 15.9259C15.9624 16.4493 15.2526 16.7433 14.5124 16.7433C13.7723 16.7433 13.0625 16.4493 12.5391 15.9259C12.0158 15.4025 11.7218 14.6927 11.7218 13.9526V10.0456Z" fill="#83848A"/>
<path fill-rule="evenodd" clip-rule="evenodd" d="M12.7546 0.474419C12.6863 0.3323 12.5792 0.21237 12.4457 0.128438C12.3122 0.0445057 12.1577 -1.57035e-05 12 4.15493e-09C11.1795 4.15493e-09 10.3769 0.0826047 9.6 0.24C4.12354 1.35181 0 6.19312 0 12C0 18.6273 5.37265 24 12 24C18.6273 24 24 18.6273 24 12C24 7.07721 21.0363 2.84986 16.8 0.99907C16.598 0.918161 16.3725 0.919069 16.1711 1.0016C15.9698 1.08413 15.8085 1.2418 15.7214 1.44121C15.6344 1.64061 15.6283 1.86608 15.7047 2.06985C15.781 2.27362 15.9336 2.43968 16.1302 2.53284C17.8363 3.27742 19.3093 4.46933 20.3935 5.98247C21.4776 7.4956 22.1326 9.27367 22.289 11.1285C22.4455 12.9834 22.0976 14.846 21.2822 16.5194C20.4669 18.1928 19.2143 19.6146 17.6571 20.6344C16.0998 21.6542 14.2959 22.2341 12.4361 22.3128C10.5763 22.3914 8.72989 21.9658 7.09215 21.081C5.45442 20.1963 4.08631 18.8852 3.13261 17.2867C2.1789 15.6881 1.67507 13.8614 1.67442 12C1.67476 9.79754 2.37896 7.65282 3.68425 5.87883C4.98955 4.10483 6.82761 2.79441 8.93023 2.13879V3.62791C8.93002 3.80153 8.98379 3.97092 9.08411 4.11264C9.18442 4.25435 9.32631 4.36137 9.49013 4.41888C9.65395 4.47639 9.8316 4.48154 9.99848 4.43363C10.1654 4.38571 10.3132 4.2871 10.4216 4.15144L12.6541 1.36074C12.7527 1.2375 12.8145 1.0889 12.8322 0.932075C12.85 0.775255 12.8231 0.616604 12.7546 0.474419Z" fill="#83848A"/>
</svg>
