<svg width="42" height="42" viewBox="0 0 42 42" fill="none" xmlns="http://www.w3.org/2000/svg">
<path d="M30.8008 41.5998C33.6651 41.5998 36.4121 40.4619 38.4375 38.4366C40.4629 36.4112 41.6008 33.6641 41.6008 30.7998C41.6008 27.9355 40.4629 25.1884 38.4375 23.1631C36.4121 21.1377 33.6651 19.9998 30.8008 19.9998C27.9364 19.9998 25.1894 21.1377 23.164 23.1631C21.1386 25.1884 20.0008 27.9355 20.0008 30.7998C20.0008 33.6641 21.1386 36.4112 23.164 38.4366C25.1894 40.4619 27.9364 41.5998 30.8008 41.5998ZM32.2984 36.8118C32.3065 37.0137 32.2737 37.2151 32.202 37.404C32.1303 37.5929 32.0212 37.7653 31.8812 37.911C31.7413 38.0567 31.5733 38.1726 31.3874 38.2518C31.2016 38.331 31.0016 38.3718 30.7996 38.3718C30.5975 38.3718 30.3976 38.331 30.2117 38.2518C30.0259 38.1726 29.8579 38.0567 29.7179 37.911C29.5779 37.7653 29.4688 37.5929 29.3972 37.404C29.3255 37.2151 29.2927 37.0137 29.3008 36.8118C29.3008 36.414 29.4588 36.0324 29.7401 35.7511C30.0214 35.4698 30.403 35.3118 30.8008 35.3118C31.1986 35.3118 31.5801 35.4698 31.8614 35.7511C32.1427 36.0324 32.3008 36.414 32.3008 36.8118H32.2984ZM35.2504 28.287C35.2504 29.6934 34.7344 30.4662 33.5032 31.4526L32.8384 31.9662C32.248 32.4318 32.0488 32.6862 32.008 33.0414L31.9816 33.4158C31.9282 33.7109 31.7662 33.9753 31.5276 34.1569C31.289 34.3385 30.991 34.4242 30.6924 34.3971C30.3937 34.37 30.116 34.2321 29.914 34.0105C29.712 33.7889 29.6002 33.4997 29.6008 33.1998C29.6008 31.8318 30.1048 31.0782 31.3192 30.1086L31.9864 29.5926C32.6776 29.0406 32.8504 28.7718 32.8504 28.287C32.8504 26.9478 31.9336 26.007 30.8008 26.007C29.6152 26.007 28.7392 26.8854 28.7512 28.275C28.7528 28.4326 28.7233 28.5889 28.6644 28.7351C28.6056 28.8813 28.5185 29.0145 28.4082 29.127C28.2979 29.2396 28.1665 29.3293 28.0215 29.3911C27.8765 29.4528 27.7208 29.4854 27.5632 29.487C27.4056 29.4886 27.2492 29.4591 27.103 29.4002C26.9569 29.3414 26.8237 29.2543 26.7111 29.144C26.5986 29.0337 26.5089 28.9023 26.4471 28.7573C26.3854 28.6123 26.3528 28.4566 26.3512 28.299C26.3272 25.5702 28.2856 23.607 30.8008 23.607C33.2752 23.607 35.2504 25.6374 35.2504 28.287ZM17.6008 0.799805C15.0547 0.799805 12.6129 1.81123 10.8126 3.61158C9.01221 5.41193 8.00078 7.85373 8.00078 10.3998C8.00078 12.9459 9.01221 15.3877 10.8126 17.188C12.6129 18.9884 15.0547 19.9998 17.6008 19.9998C20.1469 19.9998 22.5887 18.9884 24.389 17.188C26.1894 15.3877 27.2008 12.9459 27.2008 10.3998C27.2008 7.85373 26.1894 5.41193 24.389 3.61158C22.5887 1.81123 20.1469 0.799805 17.6008 0.799805ZM5.62238 22.3998C4.99031 22.3973 4.36396 22.5195 3.77924 22.7596C3.19453 22.9997 2.66295 23.3528 2.215 23.7987C1.76705 24.2447 1.41154 24.7747 1.16886 25.3583C0.926176 25.9419 0.801092 26.5677 0.800781 27.1998C0.800781 31.2582 2.79998 34.3182 5.92478 36.3126C9.00158 38.2734 13.1488 39.1998 17.6008 39.1998C18.5848 39.1998 19.5592 39.1542 20.5048 39.063C18.6206 36.7216 17.5957 33.8052 17.6008 30.7998C17.6008 27.6078 18.7336 24.6798 20.6176 22.3998H5.62478H5.62238Z" fill="#38BAF4"/>
</svg>
