<svg width="23" height="23" viewBox="0 0 23 20" fill="none" xmlns="http://www.w3.org/2000/svg">
<path d="M11.5005 8.50575C9.85184 8.50575 8.50643 9.85116 8.50643 11.4998C8.50643 13.1484 9.85184 14.4938 11.5005 14.4938C13.1491 14.4938 14.4945 13.1484 14.4945 11.4998C14.4945 9.85116 13.1491 8.50575 11.5005 8.50575ZM20.4804 11.4998C20.4804 10.2599 20.4916 9.03133 20.422 7.79373C20.3523 6.35623 20.0244 5.08045 18.9732 4.02928C17.9198 2.97586 16.6463 2.65018 15.2088 2.58055C13.9689 2.51092 12.7403 2.52215 11.5027 2.52215C10.2629 2.52215 9.03426 2.51092 7.79666 2.58055C6.35916 2.65018 5.08338 2.97811 4.03221 4.02928C2.97879 5.0827 2.65311 6.35623 2.58348 7.79373C2.51385 9.03358 2.52508 10.2622 2.52508 11.4998C2.52508 12.7374 2.51385 13.9682 2.58348 15.2058C2.65311 16.6433 2.98104 17.9191 4.03221 18.9703C5.08563 20.0237 6.35916 20.3494 7.79666 20.419C9.03651 20.4887 10.2651 20.4774 11.5027 20.4774C12.7426 20.4774 13.9712 20.4887 15.2088 20.419C16.6463 20.3494 17.9221 20.0215 18.9732 18.9703C20.0266 17.9169 20.3523 16.6433 20.422 15.2058C20.4938 13.9682 20.4804 12.7396 20.4804 11.4998ZM11.5005 16.1065C8.95116 16.1065 6.89373 14.0491 6.89373 11.4998C6.89373 8.95047 8.95116 6.89305 11.5005 6.89305C14.0498 6.89305 16.1072 8.95047 16.1072 11.4998C16.1072 14.0491 14.0498 16.1065 11.5005 16.1065ZM16.2959 7.78026C15.7007 7.78026 15.22 7.29959 15.22 6.70438C15.22 6.10916 15.7007 5.6285 16.2959 5.6285C16.8911 5.6285 17.3718 6.10916 17.3718 6.70438C17.3719 6.84572 17.3442 6.9857 17.2902 7.11631C17.2362 7.24692 17.157 7.3656 17.057 7.46554C16.9571 7.56548 16.8384 7.64472 16.7078 7.69872C16.5772 7.75273 16.4372 7.78044 16.2959 7.78026Z" fill="#414141"/>
</svg>
