<svg width="25" height="25" viewBox="0 0 25 25" fill="none" xmlns="http://www.w3.org/2000/svg">
<g clip-path="url(#clip0_598_153)">
<path d="M3.78741 11.7636C3.59213 11.959 3.48242 12.2239 3.48242 12.5001C3.48242 12.7763 3.59213 13.0412 3.78741 13.2365L9.68012 19.1293C9.77621 19.2287 9.89115 19.3081 10.0182 19.3627C10.1453 19.4173 10.282 19.446 10.4203 19.4472C10.5586 19.4484 10.6958 19.4221 10.8238 19.3697C10.9518 19.3173 11.0681 19.24 11.1659 19.1422C11.2637 19.0444 11.3411 18.9281 11.3935 18.8C11.4458 18.672 11.4722 18.5349 11.471 18.3965C11.4698 18.2582 11.4411 18.1215 11.3865 17.9945C11.3319 17.8674 11.2525 17.7524 11.153 17.6563L7.03845 13.5418H20.8332C21.1095 13.5418 21.3745 13.432 21.5698 13.2367C21.7652 13.0413 21.8749 12.7764 21.8749 12.5001C21.8749 12.2238 21.7652 11.9589 21.5698 11.7635C21.3745 11.5682 21.1095 11.4584 20.8332 11.4584H7.03845L11.153 7.34384C11.3428 7.14738 11.4478 6.88425 11.4454 6.61113C11.443 6.33801 11.3335 6.07675 11.1403 5.88361C10.9472 5.69048 10.6859 5.58093 10.4128 5.57855C10.1397 5.57618 9.87658 5.68118 9.68012 5.87092L3.78741 11.7636Z" fill="#CCCCCC"/>
</g>
<defs>
<clipPath id="clip0_598_153">
<rect width="25" height="25" fill="white" transform="matrix(0 -1 1 0 0 25)"/>
</clipPath>
</defs>
</svg>
