<svg width="27" height="27" viewBox="0 0 27 27" fill="none" xmlns="http://www.w3.org/2000/svg">
<path d="M22.2328 6.64412L16.7878 6.17162L14.6616 1.16537C14.2791 0.254121 12.9741 0.254121 12.5916 1.16537L10.4653 6.18287L5.03158 6.64412C4.04158 6.72287 3.63658 7.96037 4.39033 8.61287L8.51908 12.1904L7.28158 17.5004C7.05658 18.4679 8.10283 19.2329 8.95783 18.7154L13.6266 15.9029L18.2953 18.7266C19.1503 19.2441 20.1966 18.4791 19.9716 17.5116L18.7341 12.1904L22.8628 8.61287C23.6166 7.96037 23.2228 6.72287 22.2328 6.64412ZM13.6266 13.7991L9.39658 16.3529L10.5216 11.5379L6.78658 8.29787L11.7141 7.87037L13.6266 3.33662L15.5503 7.88162L20.4778 8.30912L16.7428 11.5491L17.8678 16.3641L13.6266 13.7991Z" fill="#351D4F"/>
</svg>
