<svg width="58" height="58" viewBox="0 0 58 58" fill="none" xmlns="http://www.w3.org/2000/svg">
<g clip-path="url(#clip0_980_324)">
<path d="M16.2843 9.17253C18.3494 8.82066 20.4672 8.93673 22.4816 9.5122C24.4959 10.0877 26.3554 11.1078 27.923 12.4975L28.0093 12.5745L28.0886 12.5045C29.5848 11.1916 31.3437 10.2127 33.248 9.63332C35.1524 9.05393 37.1584 8.88729 39.1323 9.14453L39.7063 9.22853C42.1943 9.65812 44.5199 10.7526 46.4367 12.396C48.3535 14.0394 49.7902 16.1705 50.5947 18.5638C51.3991 20.9571 51.5414 23.5234 51.0064 25.9909C50.4714 28.4584 49.2791 30.7353 47.5556 32.5805L47.1356 33.0122L47.0236 33.1079L29.6403 50.3255C29.2391 50.7226 28.7077 50.9607 28.1444 50.9959C27.581 51.0311 27.0241 50.8609 26.5766 50.5169L26.3573 50.3255L8.87364 33.0075C7.02148 31.2054 5.70427 28.9258 5.06787 26.4212C4.43148 23.9165 4.50074 21.2846 5.26798 18.8169C6.03523 16.3492 7.47051 14.1421 9.41488 12.4398C11.3593 10.7376 13.7368 9.60676 16.2843 9.17253Z" fill="#C03D22"/>
</g>
<g clip-path="url(#clip1_980_324)">
<path d="M18.2843 7.17253C20.3494 6.82066 22.4672 6.93673 24.4816 7.5122C26.4959 8.08766 28.3554 9.10784 29.923 10.4975L30.0093 10.5745L30.0886 10.5045C31.5848 9.19156 33.3437 8.21272 35.248 7.63332C37.1524 7.05393 39.1584 6.88729 41.1323 7.14453L41.7063 7.22853C44.1943 7.65812 46.5199 8.75256 48.4367 10.396C50.3535 12.0394 51.7902 14.1705 52.5947 16.5638C53.3991 18.9571 53.5414 21.5234 53.0064 23.9909C52.4714 26.4584 51.2791 28.7353 49.5556 30.5805L49.1356 31.0122L49.0236 31.1079L31.6403 48.3255C31.2391 48.7226 30.7077 48.9607 30.1444 48.9959C29.581 49.0311 29.0241 48.8609 28.5766 48.5169L28.3573 48.3255L10.8736 31.0075C9.02148 29.2054 7.70427 26.9258 7.06787 24.4212C6.43148 21.9165 6.50074 19.2846 7.26798 16.8169C8.03523 14.3492 9.47051 12.1421 11.4149 10.4398C13.3593 8.7376 15.7368 7.60676 18.2843 7.17253Z" fill="#EE5B3D"/>
</g>
<defs>
<clipPath id="clip0_980_324">
<rect width="56" height="56" fill="white" transform="translate(0 2)"/>
</clipPath>
<clipPath id="clip1_980_324">
<rect width="56" height="56" fill="white" transform="translate(2)"/>
</clipPath>
</defs>
</svg>
