<svg width="25" height="25" viewBox="0 0 25 25" fill="none" xmlns="http://www.w3.org/2000/svg">
<g clip-path="url(#clip0_598_157)">
<path d="M21.2126 13.2364C21.4079 13.041 21.5176 12.7761 21.5176 12.4999C21.5176 12.2237 21.4079 11.9588 21.2126 11.7635L15.3199 5.87074C15.2238 5.77125 15.1089 5.6919 14.9818 5.6373C14.8547 5.58271 14.718 5.55398 14.5797 5.55277C14.4414 5.55157 14.3042 5.57793 14.1762 5.6303C14.0482 5.68268 13.9319 5.76003 13.8341 5.85783C13.7363 5.95564 13.6589 6.07194 13.6065 6.19996C13.5542 6.32797 13.5278 6.46514 13.529 6.60345C13.5302 6.74176 13.5589 6.87845 13.6135 7.00554C13.6681 7.13263 13.7475 7.24757 13.847 7.34366L17.9616 11.4582L4.16676 11.4582C3.89049 11.4582 3.62554 11.568 3.43019 11.7633C3.23484 11.9587 3.12509 12.2236 3.12509 12.4999C3.12509 12.7762 3.23484 13.0411 3.43019 13.2365C3.62554 13.4318 3.89049 13.5416 4.16676 13.5416L17.9616 13.5416L13.847 17.6562C13.6572 17.8526 13.5522 18.1157 13.5546 18.3889C13.557 18.662 13.6665 18.9233 13.8597 19.1164C14.0528 19.3095 14.3141 19.4191 14.5872 19.4214C14.8603 19.4238 15.1234 19.3188 15.3199 19.1291L21.2126 13.2364Z" fill="#CCCCCC"/>
</g>
<defs>
<clipPath id="clip0_598_157">
<rect width="25" height="25" fill="white" transform="matrix(0 1 -1 0 25 0)"/>
</clipPath>
</defs>
</svg>
