<svg width="27" height="27" viewBox="0 0 27 27" fill="none" xmlns="http://www.w3.org/2000/svg">
<g clip-path="url(#clip0_707_1174)">
<path d="M18.8152 2.53091C18.596 2.57792 18.4004 2.70099 18.2631 2.87833C18.1259 3.05567 18.0558 3.27586 18.0652 3.49991V22.4999C18.043 22.6359 18.0505 22.775 18.0874 22.9077C18.1242 23.0405 18.1895 23.1636 18.2787 23.2686C18.3679 23.3736 18.4788 23.4579 18.6039 23.5157C18.7289 23.5736 18.865 23.6035 19.0027 23.6035C19.1405 23.6035 19.2766 23.5736 19.4016 23.5157C19.5266 23.4579 19.6376 23.3736 19.7268 23.2686C19.8159 23.1636 19.8812 23.0405 19.9181 22.9077C19.9549 22.775 19.9625 22.6359 19.9402 22.4999V3.49991C19.9434 3.36636 19.9184 3.23364 19.8668 3.11041C19.8152 2.98719 19.7382 2.87623 19.6408 2.78479C19.5434 2.69334 19.4278 2.62347 19.3016 2.57972C19.1754 2.53598 19.0413 2.51934 18.9082 2.53091C18.8773 2.52939 18.8462 2.52939 18.8152 2.53091ZM6.81523 3.53091C6.59596 3.57792 6.40039 3.70099 6.26313 3.87833C6.12587 4.05567 6.05577 4.27586 6.06523 4.49991V21.4999C6.04296 21.6359 6.05052 21.775 6.08738 21.9077C6.12424 22.0405 6.18953 22.1636 6.27871 22.2686C6.36789 22.3736 6.47884 22.4579 6.60386 22.5157C6.72888 22.5736 6.86498 22.6035 7.00273 22.6035C7.14049 22.6035 7.27659 22.5736 7.40161 22.5157C7.52663 22.4579 7.63758 22.3736 7.72676 22.2686C7.81594 22.1636 7.88123 22.0405 7.91809 21.9077C7.95495 21.775 7.96251 21.6359 7.94023 21.4999V4.49991C7.94341 4.36636 7.91838 4.23364 7.86678 4.11041C7.81518 3.98719 7.73817 3.87623 7.64078 3.78479C7.54339 3.69334 7.42781 3.62347 7.30158 3.57972C7.17536 3.53598 7.04132 3.51934 6.90823 3.53091C6.87725 3.52939 6.84622 3.52939 6.81523 3.53091ZM15.8152 6.53091C15.596 6.57792 15.4004 6.70099 15.2631 6.87833C15.1259 7.05567 15.0558 7.27586 15.0652 7.49991V18.4999C15.0425 18.636 15.0497 18.7755 15.0863 18.9085C15.1229 19.0416 15.188 19.1651 15.2772 19.2704C15.3664 19.3757 15.4775 19.4604 15.6027 19.5184C15.7279 19.5765 15.8642 19.6065 16.0022 19.6065C16.1402 19.6065 16.2766 19.5765 16.4018 19.5184C16.527 19.4604 16.6381 19.3757 16.7272 19.2704C16.8164 19.1651 16.8816 19.0416 16.9182 18.9085C16.9548 18.7755 16.962 18.636 16.9392 18.4999V7.49991C16.9424 7.36654 16.9174 7.234 16.8659 7.11093C16.8144 6.98785 16.7376 6.877 16.6404 6.78559C16.5433 6.69418 16.4279 6.62425 16.302 6.58037C16.176 6.53649 16.0422 6.51964 15.9092 6.53091C15.8776 6.52933 15.8469 6.52933 15.8152 6.53091ZM3.81523 7.53091C3.59596 7.57792 3.40039 7.70099 3.26313 7.87833C3.12587 8.05567 3.05577 8.27586 3.06523 8.49991V17.4999C3.04248 17.636 3.04966 17.7755 3.08627 17.9085C3.12288 18.0416 3.18804 18.1651 3.27722 18.2704C3.3664 18.3757 3.47746 18.4604 3.60267 18.5184C3.72787 18.5765 3.86423 18.6065 4.00223 18.6065C4.14024 18.6065 4.2766 18.5765 4.4018 18.5184C4.52701 18.4604 4.63807 18.3757 4.72725 18.2704C4.81643 18.1651 4.88159 18.0416 4.9182 17.9085C4.95481 17.7755 4.96199 17.636 4.93923 17.4999V8.49991C4.94238 8.36654 4.9174 8.234 4.86592 8.11093C4.81444 7.98785 4.73762 7.877 4.64045 7.78559C4.54328 7.69418 4.42795 7.62425 4.30197 7.58037C4.17598 7.53649 4.04217 7.51964 3.90923 7.53091C3.87759 7.52933 3.84688 7.52933 3.81523 7.53091ZM9.81523 8.53091C9.59596 8.57792 9.40039 8.70099 9.26313 8.87833C9.12587 9.05567 9.05577 9.27586 9.06523 9.49991V16.4999C9.04248 16.636 9.04966 16.7755 9.08627 16.9085C9.12288 17.0416 9.18804 17.1651 9.27722 17.2704C9.3664 17.3757 9.47746 17.4604 9.60267 17.5184C9.72787 17.5765 9.86423 17.6065 10.0022 17.6065C10.1402 17.6065 10.2766 17.5765 10.4018 17.5184C10.527 17.4604 10.6381 17.3757 10.7272 17.2704C10.8164 17.1651 10.8816 17.0416 10.9182 16.9085C10.9548 16.7755 10.962 16.636 10.9392 16.4999V9.49991C10.9424 9.36654 10.9174 9.234 10.8659 9.11093C10.8144 8.98785 10.7376 8.877 10.6404 8.78559C10.5433 8.69418 10.4279 8.62425 10.302 8.58037C10.176 8.53649 10.0422 8.51964 9.90923 8.53091C9.87759 8.52933 9.84688 8.52933 9.81523 8.53091ZM21.8152 8.53091C21.596 8.57792 21.4004 8.70099 21.2631 8.87833C21.1259 9.05567 21.0558 9.27586 21.0652 9.49991V16.4999C21.043 16.6359 21.0505 16.775 21.0874 16.9077C21.1242 17.0405 21.1895 17.1636 21.2787 17.2686C21.3679 17.3736 21.4788 17.4579 21.6039 17.5157C21.7289 17.5736 21.865 17.6035 22.0027 17.6035C22.1405 17.6035 22.2766 17.5736 22.4016 17.5157C22.5266 17.4579 22.6376 17.3736 22.7268 17.2686C22.8159 17.1636 22.8812 17.0405 22.9181 16.9077C22.9549 16.775 22.9625 16.6359 22.9402 16.4999V9.49991C22.9434 9.36636 22.9184 9.23364 22.8668 9.11041C22.8152 8.98719 22.7382 8.87623 22.6408 8.78479C22.5434 8.69334 22.4278 8.62347 22.3016 8.57972C22.1754 8.53597 22.0413 8.51934 21.9082 8.53091C21.8773 8.52939 21.8462 8.52939 21.8152 8.53091ZM0.815234 10.5309C0.595961 10.5779 0.400389 10.701 0.263127 10.8783C0.125866 11.0557 0.0557663 11.2759 0.0652344 11.4999V14.4999C0.042962 14.6359 0.0505185 14.775 0.0873803 14.9077C0.124242 15.0405 0.189527 15.1636 0.27871 15.2686C0.367893 15.3736 0.47884 15.4579 0.60386 15.5157C0.728881 15.5736 0.864984 15.6035 1.00273 15.6035C1.14048 15.6035 1.27659 15.5736 1.40161 15.5157C1.52663 15.4579 1.63758 15.3736 1.72676 15.2686C1.81594 15.1636 1.88123 15.0405 1.91809 14.9077C1.95495 14.775 1.96251 14.6359 1.94023 14.4999V11.4999C1.94341 11.3664 1.91838 11.2336 1.86678 11.1104C1.81518 10.9872 1.73817 10.8762 1.64078 10.7848C1.54339 10.6933 1.42781 10.6235 1.30158 10.5797C1.17536 10.536 1.04132 10.5193 0.908234 10.5309C0.87692 10.5294 0.845549 10.5294 0.814234 10.5309H0.815234ZM12.8152 10.5309C12.596 10.5779 12.4004 10.701 12.2631 10.8783C12.1259 11.0557 12.0558 11.2759 12.0652 11.4999V14.4999C12.0425 14.636 12.0497 14.7755 12.0863 14.9085C12.1229 15.0416 12.188 15.1651 12.2772 15.2704C12.3664 15.3757 12.4775 15.4604 12.6027 15.5184C12.7279 15.5765 12.8642 15.6065 13.0022 15.6065C13.1402 15.6065 13.2766 15.5765 13.4018 15.5184C13.527 15.4604 13.6381 15.3757 13.7272 15.2704C13.8164 15.1651 13.8816 15.0416 13.9182 14.9085C13.9548 14.7755 13.962 14.636 13.9392 14.4999V11.4999C13.9424 11.3665 13.9174 11.234 13.8659 11.1109C13.8144 10.9879 13.7376 10.877 13.6404 10.7856C13.5433 10.6942 13.4279 10.6243 13.302 10.5804C13.176 10.5365 13.0422 10.5196 12.9092 10.5309C12.8776 10.5293 12.8469 10.5293 12.8152 10.5309ZM24.8152 10.5309C24.596 10.5779 24.4004 10.701 24.2631 10.8783C24.1259 11.0557 24.0558 11.2759 24.0652 11.4999V14.4999C24.043 14.6359 24.0505 14.775 24.0874 14.9077C24.1242 15.0405 24.1895 15.1636 24.2787 15.2686C24.3679 15.3736 24.4788 15.4579 24.6039 15.5157C24.7289 15.5736 24.865 15.6035 25.0027 15.6035C25.1405 15.6035 25.2766 15.5736 25.4016 15.5157C25.5266 15.4579 25.6376 15.3736 25.7268 15.2686C25.8159 15.1636 25.8812 15.0405 25.9181 14.9077C25.9549 14.775 25.9625 14.6359 25.9402 14.4999V11.4999C25.9434 11.3664 25.9184 11.2336 25.8668 11.1104C25.8152 10.9872 25.7382 10.8762 25.6408 10.7848C25.5434 10.6933 25.4278 10.6235 25.3016 10.5797C25.1754 10.536 25.0413 10.5193 24.9082 10.5309C24.8773 10.5294 24.8462 10.5294 24.8152 10.5309Z" fill="black"/>
</g>
<defs>
<clipPath id="clip0_707_1174">
<rect width="26" height="26" fill="white" transform="translate(0.00195312 0.5)"/>
</clipPath>
</defs>
</svg>
