<svg width="20" height="21" viewBox="0 0 20 21" fill="none" xmlns="http://www.w3.org/2000/svg">
<path fill-rule="evenodd" clip-rule="evenodd" d="M8.74972 2.16699C7.62022 2.16709 6.50711 2.4373 5.50327 2.95507C4.49943 3.47285 3.63397 4.22317 2.97909 5.14345C2.32421 6.06373 1.8989 7.12728 1.73865 8.24536C1.5784 9.36344 1.68785 10.5036 2.05787 11.5708C2.4279 12.638 3.04776 13.6012 3.86575 14.3801C4.68375 15.159 5.67614 15.731 6.76015 16.0483C7.84416 16.3657 8.98834 16.4192 10.0972 16.2044C11.2061 15.9896 12.2476 15.5128 13.1347 14.8137L16.1781 17.857C16.3352 18.0088 16.5457 18.0928 16.7642 18.0909C16.9827 18.089 17.1917 18.0013 17.3462 17.8468C17.5007 17.6923 17.5884 17.4833 17.5903 17.2648C17.5922 17.0463 17.5082 16.8358 17.3564 16.6787L14.3131 13.6353C15.1364 12.5908 15.649 11.3357 15.7923 10.0134C15.9356 8.6912 15.7037 7.35534 15.1232 6.15874C14.5428 4.96213 13.6371 3.95312 12.51 3.24718C11.3828 2.54125 10.0797 2.1669 8.74972 2.16699ZM3.33306 9.25033C3.33306 7.81374 3.90374 6.43599 4.91956 5.42016C5.93538 4.40434 7.31313 3.83366 8.74972 3.83366C10.1863 3.83366 11.5641 4.40434 12.5799 5.42016C13.5957 6.43599 14.1664 7.81374 14.1664 9.25033C14.1664 10.6869 13.5957 12.0647 12.5799 13.0805C11.5641 14.0963 10.1863 14.667 8.74972 14.667C7.31313 14.667 5.93538 14.0963 4.91956 13.0805C3.90374 12.0647 3.33306 10.6869 3.33306 9.25033Z" fill="#83848A"/>
</svg>
