<svg width="28" height="28" viewBox="0 0 28 28" fill="none" xmlns="http://www.w3.org/2000/svg">
<path d="M2.33398 3.5H25.6673M2.33398 10.5H12.834M2.33398 17.5H9.33398M2.33398 24.5H7.00065" stroke="black" stroke-width="1.5" stroke-miterlimit="10" stroke-linecap="round" stroke-linejoin="round"/>
<path d="M13.8129 25.6667C14.4874 25.6667 15.1343 25.3988 15.6113 24.9218C16.0882 24.4449 16.3562 23.7979 16.3562 23.1234C16.3562 22.4489 16.0882 21.802 15.6113 21.325C15.1343 20.848 14.4874 20.5801 13.8129 20.5801C13.1383 20.5801 12.4914 20.848 12.0145 21.325C11.5375 21.802 11.2695 22.4489 11.2695 23.1234C11.2695 23.7979 11.5375 24.4449 12.0145 24.9218C12.4914 25.3988 13.1383 25.6667 13.8129 25.6667Z" stroke="black" stroke-width="1.5" stroke-linecap="round" stroke-linejoin="round"/>
<path d="M25.6674 21.4318V11.5034C25.6674 9.39175 24.3374 9.10008 22.9958 9.46175L17.9208 10.8501C16.9991 11.1068 16.3574 11.8301 16.3574 12.8918V23.1234" stroke="black" stroke-width="1.5" stroke-linecap="round" stroke-linejoin="round"/>
<path d="M16.3574 15.8666L25.6674 13.3232M23.1241 23.9749C23.7986 23.9749 24.4455 23.707 24.9225 23.23C25.3995 22.753 25.6674 22.1061 25.6674 21.4316C25.6674 20.757 25.3995 20.1101 24.9225 19.6332C24.4455 19.1562 23.7986 18.8882 23.1241 18.8882C22.4496 18.8882 21.8026 19.1562 21.3257 19.6332C20.8487 20.1101 20.5808 20.757 20.5808 21.4316C20.5808 22.1061 20.8487 22.753 21.3257 23.23C21.8026 23.707 22.4496 23.9749 23.1241 23.9749Z" stroke="black" stroke-width="1.5" stroke-linecap="round" stroke-linejoin="round"/>
</svg>
