<svg width="24" height="26" viewBox="0 0 24 26" fill="none" xmlns="http://www.w3.org/2000/svg">
<path d="M1.5 24.999H22.5M4.53333 8.65502H2.66667C2.025 8.65502 1.5 9.19502 1.5 9.85502V20.199C1.5 20.859 2.025 21.399 2.66667 21.399H4.53333C5.175 21.399 5.7 20.859 5.7 20.199V9.85502C5.7 9.19502 5.175 8.65502 4.53333 8.65502ZM12.9333 4.82702H11.0667C10.425 4.82702 9.9 5.36702 9.9 6.02702V20.199C9.9 20.859 10.425 21.399 11.0667 21.399H12.9333C13.575 21.399 14.1 20.859 14.1 20.199V6.02702C14.1 5.36702 13.575 4.82702 12.9333 4.82702ZM21.3333 0.999023H19.4667C18.825 0.999023 18.3 1.53902 18.3 2.19902V20.199C18.3 20.859 18.825 21.399 19.4667 21.399H21.3333C21.975 21.399 22.5 20.859 22.5 20.199V2.19902C22.5 1.53902 21.975 0.999023 21.3333 0.999023Z" stroke="black" stroke-width="1.5" stroke-linecap="round" stroke-linejoin="round"/>
</svg>
