<svg width="24" height="19" viewBox="0 0 24 19" fill="none" xmlns="http://www.w3.org/2000/svg">
<path d="M3.50774 5.49885C3.50794 4.55077 3.75321 3.61883 4.21976 2.79348C4.68631 1.96814 5.35828 1.2774 6.17048 0.788319C6.98267 0.299234 7.90751 0.0284054 8.85523 0.00211538C9.80295 -0.0241747 10.7414 0.194966 11.5794 0.638273C12.4175 1.08158 13.1267 1.734 13.6383 2.53221C14.1499 3.33043 14.4465 4.24733 14.4992 5.19395C14.552 6.14056 14.3591 7.08474 13.9394 7.93486C13.5197 8.78498 12.8874 9.51217 12.1037 10.0459C13.7912 10.6648 15.2549 11.7746 16.3064 13.2324C17.3578 14.6902 17.949 16.4293 18.0037 18.2259C18.0014 18.4196 17.9243 18.6049 17.7886 18.7431C17.6528 18.8813 17.4689 18.9617 17.2753 18.9675C17.0817 18.9733 16.8933 18.9041 16.7495 18.7742C16.6057 18.6444 16.5177 18.4641 16.5037 18.2709C16.4442 16.3223 15.6283 14.4735 14.2289 13.1163C12.8295 11.759 10.9567 11 9.00724 11C7.05779 11 5.18493 11.759 3.78557 13.1163C2.3862 14.4735 1.57029 16.3223 1.51074 18.2709C1.50073 18.4667 1.41442 18.6508 1.2703 18.7838C1.12618 18.9167 0.935718 18.988 0.739714 18.9822C0.543709 18.9765 0.357752 18.8942 0.221682 18.753C0.0856108 18.6118 0.0102488 18.4229 0.0117405 18.2269C0.0662918 16.4301 0.657347 14.6908 1.70883 13.2328C2.76031 11.7748 4.22408 10.6649 5.91174 10.0459C5.17057 9.54149 4.56403 8.86348 4.14501 8.07093C3.72599 7.27838 3.50721 6.39535 3.50774 5.49885ZM9.00774 1.49885C7.94687 1.49885 6.92946 1.92028 6.17931 2.67043C5.42917 3.42057 5.00774 4.43799 5.00774 5.49885C5.00774 6.55972 5.42917 7.57714 6.17931 8.32728C6.92946 9.07743 7.94687 9.49885 9.00774 9.49885C10.0686 9.49885 11.086 9.07743 11.8362 8.32728C12.5863 7.57714 13.0077 6.55972 13.0077 5.49885C13.0077 4.43799 12.5863 3.42057 11.8362 2.67043C11.086 1.92028 10.0686 1.49885 9.00774 1.49885ZM17.2977 5.49885C17.1497 5.49885 17.0057 5.50885 16.8637 5.52885C16.7646 5.54661 16.6629 5.54421 16.5647 5.5218C16.4665 5.49939 16.3738 5.45744 16.2922 5.39844C16.2106 5.33944 16.1417 5.2646 16.0896 5.17839C16.0375 5.09218 16.0033 4.99637 15.9891 4.89666C15.9748 4.79696 15.9808 4.6954 16.0067 4.59806C16.0325 4.50072 16.0777 4.40958 16.1396 4.33008C16.2014 4.25058 16.2786 4.18436 16.3666 4.13535C16.4546 4.08635 16.5516 4.05557 16.6517 4.04485C17.6463 3.90106 18.6605 4.09205 19.5346 4.58778C20.4087 5.0835 21.0932 5.85582 21.4803 6.78318C21.8675 7.71054 21.9352 8.7403 21.673 9.71039C21.4107 10.6805 20.8334 11.5358 20.0317 12.1419C21.2101 12.6695 22.2107 13.5269 22.9126 14.6105C23.6146 15.6941 23.988 16.9577 23.9877 18.2489C23.9877 18.4478 23.9087 18.6385 23.7681 18.7792C23.6274 18.9198 23.4367 18.9989 23.2377 18.9989C23.0388 18.9989 22.8481 18.9198 22.7074 18.7792C22.5668 18.6385 22.4877 18.4478 22.4877 18.2489C22.4876 17.133 22.1281 16.0469 21.4624 15.1513C20.7967 14.2558 19.8602 13.5985 18.7917 13.2769L18.2577 13.1169V11.4409L18.6677 11.2319C19.2755 10.924 19.7618 10.4203 20.048 9.8021C20.3343 9.18388 20.4039 8.48723 20.2456 7.82461C20.0872 7.16199 19.7102 6.57207 19.1753 6.15008C18.6405 5.72809 17.979 5.49867 17.2977 5.49885Z" fill="currentColor"/>
</svg>
