<svg width="30" height="30" viewBox="0 0 30 30" fill="none" xmlns="http://www.w3.org/2000/svg">
<path d="M21.2496 11.4621C21.0154 11.2293 20.6986 11.0986 20.3684 11.0986C20.0381 11.0986 19.7213 11.2293 19.4871 11.4621L14.9996 15.8871L10.5746 11.4621C10.3404 11.2293 10.0236 11.0986 9.69338 11.0986C9.36315 11.0986 9.04633 11.2293 8.81213 11.4621C8.69497 11.5783 8.60198 11.7166 8.53852 11.8689C8.47506 12.0212 8.44238 12.1846 8.44238 12.3496C8.44238 12.5146 8.47506 12.678 8.53852 12.8303C8.60198 12.9827 8.69497 13.1209 8.81213 13.2371L14.1121 18.5371C14.2283 18.6543 14.3666 18.7473 14.5189 18.8107C14.6712 18.8742 14.8346 18.9069 14.9996 18.9069C15.1646 18.9069 15.328 18.8742 15.4804 18.8107C15.6327 18.7473 15.7709 18.6543 15.8871 18.5371L21.2496 13.2371C21.3668 13.1209 21.4598 12.9827 21.5232 12.8303C21.5867 12.678 21.6194 12.5146 21.6194 12.3496C21.6194 12.1846 21.5867 12.0212 21.5232 11.8689C21.4598 11.7166 21.3668 11.5783 21.2496 11.4621Z" fill="#FBFBFB"/>
</svg>
