<svg width="16" height="16" viewBox="0 0 16 16" fill="none" xmlns="http://www.w3.org/2000/svg">
<path d="M6.90909 0C5.48509 0 4.34109 1.00004 4.34109 2.20906V2.47766H1.45455C1.05382 2.47766 0.727273 2.75364 0.727273 3.09231V3.70696H0V4.93627H1.45455V14.156C1.45455 15.1671 2.44 16 3.63636 16H12.3636C13.56 16 14.5455 15.1671 14.5455 14.156V4.93627H16V3.70696H15.2727V3.09231C15.2727 2.75364 14.9462 2.47766 14.5455 2.47766H11.6589V2.20844C11.6589 1.00004 10.5149 0 9.09091 0H6.90909ZM6.90909 1.26741H9.09091C9.67564 1.26741 10.1593 1.67062 10.1593 2.20844V2.47766H5.84V2.20844C5.84 1.67062 6.32364 1.26803 6.90836 1.26803L6.90909 1.26741ZM2.90909 4.93627H6.63636C6.72655 4.94426 6.816 4.95532 6.90909 4.95532H9.09091C9.184 4.95532 9.27273 4.94426 9.36364 4.93627H13.0909V14.156C13.0909 14.5021 12.7731 14.7707 12.3636 14.7707H3.63636C3.22691 14.7707 2.90909 14.5021 2.90909 14.156V4.93627ZM4.36364 6.16557V13.5414H5.81818V6.16557H4.36364ZM7.27273 6.16557V13.5414H8.72727V6.16557H7.27273ZM10.1818 6.16557V13.5414H11.6364V6.16557H10.1818Z" fill="#D55454"/>
</svg>
