<svg width="601" height="709" viewBox="0 0 601 709" fill="none" xmlns="http://www.w3.org/2000/svg">
<path opacity="0.2" d="M269.886 672.369C418.94 672.369 539.772 551.537 539.772 402.483C539.772 253.429 418.94 132.597 269.886 132.597C120.832 132.597 0 253.429 0 402.483C0 551.537 120.832 672.369 269.886 672.369Z" fill="#60388B"/>
<path d="M21.0279 628.843C9.48305 603.96 3.49669 576.861 3.48512 549.431C3.47356 522 9.43708 494.896 20.961 470.004C32.4849 445.111 49.2926 423.028 70.2153 405.289C91.1381 387.55 115.674 374.581 142.116 367.284L158.175 425.34C140.162 430.305 123.447 439.135 109.193 451.214C94.9381 463.294 83.4862 478.334 75.6335 495.288C67.7808 512.243 63.7158 530.704 63.7212 549.389C63.7266 568.073 67.8024 586.532 75.6649 603.482L21.0279 628.843Z" fill="#60388B"/>
<path d="M24.179 708.428C20.8428 708.431 17.5709 707.509 14.726 705.767C11.8811 704.024 9.57428 701.527 8.06105 698.554C3.83301 690.251 1.28179 681.196 0.553041 671.907C-0.175704 662.618 0.932303 653.277 3.8138 644.416C9.63324 626.521 22.3232 611.67 39.092 603.131C47.3951 598.903 56.4497 596.352 65.7387 595.623C75.0278 594.894 84.3694 596.002 93.2303 598.884C111.126 604.703 125.976 617.393 134.515 634.162C135.613 636.279 136.281 638.592 136.481 640.968C136.681 643.345 136.408 645.737 135.679 648.007C134.95 650.278 133.779 652.382 132.233 654.198C130.688 656.013 128.798 657.505 126.673 658.587C124.548 659.669 122.23 660.32 119.852 660.502C117.474 660.684 115.084 660.394 112.819 659.648C110.554 658.902 108.459 657.715 106.655 656.156C104.851 654.596 103.373 652.695 102.307 650.562C100.239 646.478 97.3857 642.842 93.9105 639.862C90.4353 636.883 86.4065 634.618 82.0548 633.197C77.703 631.776 73.1138 631.228 68.5499 631.584C63.9859 631.939 59.5369 633.191 55.4576 635.268C51.3782 637.346 47.7487 640.207 44.7767 643.689C41.8048 647.171 39.5488 651.205 38.138 655.56C36.7272 659.914 36.1892 664.505 36.5549 669.068C36.9205 673.631 38.1827 678.077 40.2691 682.152C41.6702 684.906 42.342 687.974 42.2202 691.062C42.0984 694.15 41.187 697.155 39.5732 699.79C37.9594 702.425 35.697 704.603 33.0019 706.115C30.3069 707.627 27.2693 708.424 24.179 708.428Z" fill="#292A2E"/>
<path d="M491.257 400.676C465.873 422.355 435.159 436.862 402.291 442.695L391.686 383.395C420.909 378.128 447.411 362.914 466.695 340.333C485.979 317.753 496.858 289.197 497.486 259.509L557.709 260.765C556.775 309.145 537.229 355.303 503.135 389.64C499.312 393.503 495.352 397.182 491.257 400.676Z" fill="#60388B"/>
<path d="M575.022 259.043C564.772 267.752 552.258 273.367 538.939 275.236C525.619 277.105 512.043 275.15 499.792 269.598C487.541 264.047 477.12 255.128 469.744 243.881C462.368 232.634 458.341 219.522 458.131 206.074C458.084 201.3 459.929 196.701 463.263 193.282C466.596 189.863 471.146 187.903 475.921 187.828C480.695 187.754 485.304 189.572 488.742 192.885C492.181 196.198 494.168 200.737 494.27 205.511C494.413 214.742 498.218 223.538 504.847 229.963C511.475 236.389 520.385 239.919 529.616 239.775C538.847 239.632 547.643 235.827 554.068 229.198C560.494 222.57 564.023 213.66 563.88 204.429C563.805 199.637 565.638 195.011 568.974 191.57C572.309 188.129 576.876 186.154 581.668 186.079C586.46 186.005 591.086 187.837 594.527 191.173C597.968 194.509 599.943 199.075 600.018 203.867C600.188 213.187 598.508 222.448 595.075 231.114C591.642 239.781 586.524 247.68 580.018 254.355C578.419 256.006 576.753 257.568 575.022 259.043Z" fill="#292A2E"/>
<path d="M446.125 1.37906L429.733 48.9171C429.629 49.22 429.597 49.5432 429.641 49.8607C429.684 50.1782 429.802 50.4809 429.984 50.7446C430.166 51.0082 430.407 51.2254 430.689 51.3785C430.97 51.5316 431.284 51.6164 431.604 51.6261L442.663 51.9561C442.988 51.9658 443.305 52.0526 443.589 52.2093C443.873 52.3661 444.116 52.5883 444.298 52.8575C444.479 53.1268 444.593 53.4353 444.632 53.7577C444.67 54.08 444.631 54.4068 444.518 54.7111L426.275 103.824C426.105 104.284 426.105 104.789 426.276 105.248C426.448 105.707 426.778 106.09 427.208 106.326C427.637 106.562 428.137 106.635 428.616 106.534C429.096 106.432 429.523 106.161 429.819 105.771L472.772 49.1591C472.962 48.9082 473.092 48.6168 473.151 48.3076C473.21 47.9983 473.197 47.6796 473.113 47.3763C473.029 47.0729 472.876 46.7931 472.665 46.5587C472.455 46.3244 472.194 46.1417 471.901 46.0251L459.036 40.8921C458.784 40.7917 458.555 40.6423 458.362 40.4526C458.169 40.2628 458.015 40.0365 457.91 39.7869C457.805 39.5372 457.751 39.2691 457.75 38.9983C457.75 38.7274 457.803 38.4591 457.907 38.2091L472.333 3.55406C472.46 3.24864 472.511 2.91694 472.482 2.58745C472.452 2.25796 472.343 1.94052 472.164 1.66239C471.985 1.38427 471.741 1.15376 471.454 0.990672C471.166 0.827582 470.843 0.73678 470.512 0.726063L448.123 0.0010634C447.686 -0.0130256 447.257 0.113195 446.897 0.361204C446.538 0.609212 446.267 0.965949 446.125 1.37906Z" fill="#60388B"/>
<path d="M27.4419 219.551L46.5419 256.697C46.6632 256.934 46.7272 257.196 46.7288 257.462C46.7303 257.728 46.6694 257.991 46.5509 258.229C46.4324 258.467 46.2597 258.674 46.0466 258.834C45.8335 258.993 45.586 259.1 45.3239 259.146L36.2709 260.725C36.0054 260.772 35.7549 260.881 35.5398 261.043C35.3248 261.206 35.1516 261.417 35.0344 261.66C34.9171 261.903 34.8593 262.17 34.8657 262.44C34.872 262.709 34.9424 262.973 35.0709 263.21L55.8819 301.431C56.0728 301.789 56.1295 302.203 56.0419 302.599C55.9543 302.994 55.7282 303.346 55.4043 303.59C55.0804 303.833 54.6801 303.953 54.2755 303.928C53.871 303.903 53.4888 303.733 53.1979 303.451L11.1859 261.987C11.0003 261.803 10.8596 261.579 10.7747 261.332C10.6898 261.085 10.663 260.821 10.6964 260.562C10.7297 260.303 10.8224 260.055 10.9671 259.838C11.1119 259.62 11.3048 259.439 11.5309 259.308L21.5009 253.566C21.6957 253.454 21.8662 253.303 22.0025 253.124C22.1389 252.946 22.2383 252.741 22.2952 252.524C22.352 252.306 22.3651 252.079 22.3336 251.857C22.3022 251.634 22.2268 251.419 22.1119 251.226L6.15194 224.44C6.01221 224.204 5.93169 223.938 5.91727 223.664C5.90284 223.39 5.95494 223.116 6.06911 222.867C6.18328 222.617 6.35613 222.399 6.57291 222.231C6.78968 222.063 7.04393 221.95 7.31394 221.901L25.6369 218.658C25.9937 218.595 26.3612 218.648 26.6859 218.809C27.0106 218.969 27.2755 219.229 27.4419 219.551Z" fill="#292A2E"/>
<path d="M101.667 370.446L141.6 596.291C146.762 625.486 162.042 651.93 184.758 670.983C207.474 690.035 236.174 700.478 265.822 700.478C294.727 700.479 322.755 690.553 345.218 672.362C367.681 654.171 383.215 628.817 389.222 600.543L438.106 370.443L101.667 370.446Z" fill="#60388B"/>
<path d="M269.886 420.181C362.791 420.181 438.105 397.914 438.105 370.446C438.105 342.978 362.791 320.711 269.886 320.711C176.981 320.711 101.667 342.978 101.667 370.446C101.667 397.914 176.981 420.181 269.886 420.181Z" fill="#292A2E"/>
<path d="M329.741 498.064H211.998C200.845 498.064 191.803 507.106 191.803 518.259V575.219C191.803 586.372 200.845 595.414 211.998 595.414H329.741C340.894 595.414 349.936 586.372 349.936 575.219V518.259C349.936 507.106 340.894 498.064 329.741 498.064Z" fill="#292A2E"/>
<path d="M258.112 548.557H251.112C251.112 539.335 255.29 526.626 275.195 518.45C286.855 513.661 282.995 495.964 282.953 495.786L289.776 494.22C289.998 495.183 295.015 517.877 277.855 524.92C264.754 530.301 258.112 538.257 258.112 548.557Z" fill="#60388B"/>
<path d="M320.915 599.508C314.108 586.744 311.267 586.997 299.288 588.061C295.388 588.408 290.536 588.84 284.612 588.84C258.097 588.84 255.338 569.54 255.312 569.346L262.255 568.464L258.783 568.905L262.251 568.431C262.331 568.979 264.451 581.84 284.61 581.84C290.223 581.84 294.71 581.44 298.666 581.089C312.143 579.889 318.466 580.041 327.089 596.214L320.915 599.508Z" fill="#60388B"/>
<path d="M240 552.145C239.761 552.145 239.525 552.087 239.313 551.977L231.747 548.077C231.393 547.894 231.127 547.579 231.006 547.2C230.885 546.821 230.92 546.409 231.102 546.056C231.285 545.702 231.601 545.436 231.98 545.315C232.359 545.194 232.77 545.228 233.124 545.411L240.69 549.311C240.99 549.465 241.229 549.715 241.368 550.022C241.508 550.328 241.541 550.673 241.462 551C241.382 551.327 241.194 551.618 240.929 551.826C240.664 552.034 240.337 552.146 240 552.145Z" fill="white"/>
<path d="M230.859 566.99C230.509 566.989 230.171 566.866 229.902 566.641C229.633 566.417 229.452 566.106 229.388 565.762C229.325 565.418 229.384 565.062 229.555 564.757C229.726 564.452 229.998 564.216 230.325 564.09L238.282 561.061C238.648 560.94 239.047 560.966 239.396 561.131C239.744 561.297 240.015 561.591 240.153 561.951C240.29 562.312 240.283 562.711 240.134 563.067C239.984 563.423 239.704 563.707 239.35 563.861L231.393 566.891C231.223 566.956 231.042 566.99 230.859 566.99Z" fill="white"/>
<path d="M278.712 560.825C278.336 560.825 277.974 560.683 277.698 560.428C277.421 560.173 277.25 559.824 277.219 559.45C277.188 559.075 277.299 558.702 277.529 558.405C277.76 558.108 278.093 557.909 278.464 557.846L286.864 556.427C287.255 556.363 287.656 556.456 287.979 556.687C288.301 556.918 288.519 557.266 288.585 557.657C288.652 558.048 288.56 558.45 288.331 558.773C288.102 559.097 287.755 559.317 287.364 559.385L278.964 560.804C278.881 560.818 278.796 560.825 278.712 560.825Z" fill="white"/>
<path d="M272.569 550.663C272.301 550.663 272.038 550.591 271.807 550.454C271.576 550.318 271.386 550.122 271.256 549.887C271.127 549.652 271.063 549.387 271.07 549.119C271.078 548.851 271.158 548.59 271.301 548.363L275.846 541.163C275.949 540.992 276.085 540.844 276.246 540.726C276.407 540.608 276.59 540.524 276.785 540.478C276.979 540.432 277.18 540.425 277.377 540.458C277.574 540.491 277.762 540.562 277.931 540.669C278.099 540.775 278.245 540.914 278.36 541.078C278.474 541.241 278.555 541.426 278.597 541.621C278.639 541.816 278.642 542.017 278.605 542.214C278.568 542.41 278.493 542.597 278.383 542.763L273.838 549.963C273.703 550.177 273.516 550.354 273.294 550.476C273.072 550.599 272.822 550.663 272.569 550.663Z" fill="white"/>
<path d="M358.192 543.319C343.63 543.319 331.481 539.341 321.985 531.445C304.44 516.855 302.559 494.336 302.485 493.385L309.465 492.86L305.975 493.123L309.464 492.855C309.481 493.055 311.248 513.455 326.512 526.108C336.512 534.393 350.145 537.661 367.058 535.819L367.816 542.778C364.62 543.132 361.407 543.313 358.192 543.319Z" fill="#60388B"/>
<path d="M175.694 586.823L174.401 579.943C201.238 574.897 201.218 563.732 201.195 550.806C201.18 542.1 201.162 532.233 211.418 526.463C230.493 515.732 228.965 491.409 228.948 491.163L235.928 490.638C236.017 491.815 237.859 519.618 214.85 532.562C208.493 536.139 208.179 541.819 208.195 550.791C208.219 564.118 208.248 580.701 175.694 586.823Z" fill="#60388B"/>
<path d="M382.558 385.963C382.424 385.963 382.29 385.95 382.158 385.923C374.581 384.399 360.286 377.923 360.414 364.307C360.403 361.638 361.038 359.006 362.263 356.635C363.489 354.264 365.269 352.224 367.452 350.689C365.218 346.548 364.557 341.739 365.591 337.149C368.449 322.258 383.441 319.649 390.973 320.355C391.499 320.406 391.984 320.663 392.322 321.071C392.659 321.479 392.821 322.003 392.772 322.53C392.723 323.057 392.468 323.543 392.062 323.881C391.656 324.22 391.132 324.385 390.605 324.338C389.866 324.27 372.405 322.874 369.519 337.903C368.667 341.53 369.151 345.343 370.883 348.642C378.307 345.06 388.476 345.042 393.144 348.611C394.079 349.251 394.807 350.151 395.239 351.199C395.67 352.247 395.786 353.398 395.573 354.511C394.639 359.381 388.923 361.811 381.685 360.421C377.128 359.59 372.96 357.315 369.794 353.934C368.118 355.102 366.753 356.66 365.815 358.474C364.878 360.289 364.397 362.304 364.414 364.346C364.285 378.046 382.763 381.965 382.949 382.003C383.436 382.101 383.869 382.376 384.164 382.775C384.459 383.174 384.595 383.668 384.546 384.162C384.497 384.656 384.266 385.114 383.898 385.447C383.53 385.78 383.051 385.964 382.555 385.964L382.558 385.963ZM373.4 351.891C375.923 354.244 379.058 355.838 382.445 356.491C387.216 357.404 391.176 356.23 391.651 353.755C391.723 353.371 391.671 352.974 391.504 352.62C391.336 352.267 391.062 351.975 390.719 351.787C387.7 349.477 379.83 349.101 373.4 351.891Z" fill="white"/>
<path d="M211.61 370.941C211.19 370.941 210.781 370.809 210.441 370.564C210.1 370.318 209.845 369.972 209.713 369.574C209.58 369.175 209.576 368.745 209.701 368.345C209.826 367.944 210.074 367.593 210.41 367.341C210.841 367.016 220.91 359.253 215.185 349.834C213.957 347.636 212.031 345.912 209.711 344.934C207.211 350.634 201.558 355.634 197.118 356.007C196.182 356.131 195.231 355.98 194.38 355.572C193.529 355.163 192.816 354.515 192.328 353.707C191.78 352.755 191.503 351.672 191.525 350.574C191.547 349.475 191.868 348.404 192.454 347.475C194.683 343.404 200.227 340.361 205.634 340.239C206.084 340.231 206.534 340.239 206.974 340.268C207.225 338.909 207.156 337.51 206.772 336.182C206.389 334.854 205.701 333.634 204.764 332.618C198.186 325.211 186.308 332.153 186.19 332.224C185.964 332.358 185.714 332.447 185.454 332.485C185.194 332.523 184.93 332.509 184.675 332.444C184.42 332.38 184.181 332.266 183.97 332.109C183.76 331.952 183.582 331.755 183.448 331.529C183.314 331.303 183.225 331.053 183.187 330.794C183.149 330.534 183.163 330.269 183.228 330.014C183.292 329.76 183.406 329.52 183.563 329.31C183.72 329.099 183.917 328.921 184.143 328.787C184.743 328.428 199.007 320.11 207.754 329.961C209.11 331.444 210.101 333.223 210.646 335.157C211.191 337.091 211.276 339.126 210.894 341.099C214.147 342.373 216.867 344.72 218.603 347.751C224.703 357.779 217.479 367.039 212.81 370.535C212.465 370.798 212.044 370.94 211.61 370.941ZM205.61 344.248C201.257 344.388 197.294 346.966 195.959 349.403C195.725 349.721 195.581 350.097 195.543 350.49C195.505 350.884 195.575 351.28 195.744 351.637C195.844 351.806 196.02 352.081 196.786 352.025C199.293 351.817 203.41 348.485 205.608 344.248H205.61Z" fill="white"/>
<path d="M430.612 204.418C440.851 276.818 372.912 321.964 283.027 334.674C193.142 347.384 115.352 322.849 105.114 250.444C94.876 178.039 156.067 85.1831 245.951 72.4731C335.835 59.7631 420.374 132.013 430.612 204.418Z" fill="#60388B"/>
<path d="M344.385 126.994L251.81 140.083C222.793 144.186 202.595 171.036 206.698 200.054C210.801 229.071 237.651 249.269 266.669 245.166L359.243 232.076C388.261 227.973 408.458 201.124 404.355 172.106C400.252 143.088 373.402 122.891 344.385 126.994Z" fill="white"/>
<path d="M237.989 16.4438L230.811 17.8196L244.674 90.1521L251.853 88.7762L237.989 16.4438Z" fill="#60388B"/>
<path d="M235.426 35.8401C242.803 35.8401 248.784 29.8595 248.784 22.4821C248.784 15.1046 242.803 9.12406 235.426 9.12406C228.049 9.12406 222.068 15.1046 222.068 22.4821C222.068 29.8595 228.049 35.8401 235.426 35.8401Z" fill="#292A2E"/>
<path d="M285.566 212.174C284.267 212.174 283.003 211.751 281.966 210.968L242.655 181.401C242.014 180.932 241.473 180.34 241.062 179.66C240.652 178.979 240.381 178.224 240.265 177.438C240.148 176.653 240.189 175.852 240.385 175.082C240.581 174.312 240.928 173.588 241.405 172.953C241.883 172.319 242.481 171.785 243.167 171.383C243.852 170.982 244.611 170.72 245.398 170.614C246.185 170.508 246.986 170.559 247.753 170.765C248.52 170.97 249.239 171.326 249.868 171.812L289.177 201.381C290.185 202.137 290.93 203.192 291.305 204.395C291.68 205.598 291.667 206.888 291.267 208.084C290.868 209.279 290.102 210.318 289.079 211.053C288.055 211.789 286.826 212.183 285.566 212.181V212.174Z" fill="#292A2E"/>
<path d="M251.125 217.043C250.01 217.042 248.918 216.731 247.97 216.144C247.023 215.557 246.258 214.718 245.76 213.72C245.263 212.723 245.053 211.606 245.155 210.497C245.256 209.387 245.665 208.327 246.335 207.436L275.906 168.126C276.868 166.869 278.287 166.043 279.856 165.827C281.424 165.612 283.014 166.025 284.279 166.977C285.544 167.929 286.381 169.342 286.609 170.908C286.837 172.474 286.436 174.068 285.495 175.34L255.925 214.65C255.366 215.394 254.641 215.998 253.808 216.414C252.975 216.829 252.056 217.045 251.125 217.043Z" fill="#292A2E"/>
<path d="M370.933 200.101C369.634 200.101 368.37 199.678 367.333 198.895L328.024 169.325C327.389 168.853 326.854 168.261 326.45 167.581C326.045 166.902 325.778 166.15 325.665 165.367C325.552 164.584 325.595 163.787 325.791 163.021C325.988 162.255 326.333 161.535 326.809 160.903C327.284 160.271 327.879 159.74 328.561 159.339C329.243 158.938 329.997 158.675 330.78 158.567C331.563 158.458 332.36 158.505 333.125 158.706C333.89 158.906 334.608 159.256 335.237 159.735L374.546 189.305C375.554 190.061 376.299 191.116 376.674 192.319C377.049 193.522 377.036 194.812 376.636 196.008C376.237 197.203 375.471 198.242 374.448 198.977C373.424 199.713 372.195 200.107 370.935 200.105L370.933 200.101Z" fill="#292A2E"/>
<path d="M336.494 204.972C335.379 204.971 334.287 204.66 333.339 204.073C332.391 203.487 331.626 202.647 331.128 201.65C330.631 200.652 330.421 199.536 330.523 198.426C330.624 197.316 331.033 196.256 331.703 195.365L361.273 156.055C362.23 154.783 363.652 153.944 365.228 153.721C366.804 153.498 368.403 153.91 369.675 154.867C370.947 155.824 371.786 157.246 372.009 158.822C372.232 160.398 371.82 161.997 370.863 163.269L341.293 202.579C340.734 203.323 340.009 203.927 339.176 204.343C338.343 204.758 337.425 204.973 336.494 204.972Z" fill="#292A2E"/>
<path d="M313.838 261.578C315.644 259.187 318.092 257.359 320.897 256.306C323.702 255.253 326.748 255.019 329.681 255.631C332.614 256.243 335.313 257.676 337.463 259.763C339.613 261.85 341.125 264.505 341.824 267.418C341.951 267.933 341.975 268.469 341.894 268.994C341.814 269.518 341.63 270.022 341.354 270.475C341.078 270.929 340.715 271.323 340.286 271.636C339.857 271.948 339.37 272.173 338.854 272.297C338.337 272.421 337.802 272.441 337.278 272.357C336.753 272.273 336.251 272.086 335.799 271.807C335.348 271.528 334.956 271.162 334.646 270.731C334.336 270.3 334.114 269.812 333.994 269.295C333.757 268.305 333.326 267.371 332.728 266.547C332.13 265.723 331.375 265.025 330.507 264.493C329.639 263.96 328.675 263.604 327.669 263.445C326.663 263.285 325.636 263.325 324.646 263.563C323.655 263.8 322.722 264.23 321.898 264.828C321.074 265.427 320.375 266.181 319.843 267.05C319.311 267.918 318.955 268.882 318.795 269.888C318.636 270.894 318.676 271.921 318.913 272.911C319.154 273.947 318.976 275.036 318.417 275.94C317.858 276.845 316.964 277.492 315.931 277.739C314.897 277.987 313.806 277.816 312.898 277.263C311.99 276.71 311.338 275.82 311.083 274.788C310.594 272.77 310.51 270.675 310.836 268.624C311.162 266.573 311.892 264.607 312.983 262.84C313.248 262.404 313.533 261.983 313.838 261.578Z" fill="#292A2E"/>
</svg>
