<svg width="25" height="25" viewBox="0 0 25 25" fill="none" xmlns="http://www.w3.org/2000/svg">
<path d="M3.90625 20.3125H21.0938C21.301 20.3125 21.4997 20.3948 21.6462 20.5413C21.7927 20.6878 21.875 20.8865 21.875 21.0938C21.875 21.301 21.7927 21.4997 21.6462 21.6462C21.4997 21.7927 21.301 21.875 21.0938 21.875H3.90625C3.69905 21.875 3.50034 21.7927 3.35382 21.6462C3.20731 21.4997 3.125 21.301 3.125 21.0938C3.125 20.8865 3.20731 20.6878 3.35382 20.5413C3.50034 20.3948 3.69905 20.3125 3.90625 20.3125ZM13.2812 6.19375V17.1875H11.7188V6.0375L5.79219 11.9641L4.6875 10.8594L12.4219 3.125L20.1562 10.8594L19.05 11.9641L13.2812 6.19375Z" fill="white"/>
</svg>
