<svg width="40" height="40" viewBox="0 0 40 40" fill="none" xmlns="http://www.w3.org/2000/svg">
<path fill-rule="evenodd" clip-rule="evenodd" d="M36.8191 15.7204C36.7025 15.7148 36.5858 15.7128 36.4691 15.7144H31.5991C27.6151 15.7144 24.2031 18.8764 24.2031 23.0004C24.2031 27.1244 27.6151 30.2864 31.6011 30.2864H36.4671C36.5891 30.2864 36.7071 30.2864 36.8171 30.2784C37.6395 30.2259 38.4147 29.8762 38.9983 29.2944C39.5819 28.7127 39.934 27.9386 39.9891 27.1164C39.9971 26.9984 39.9971 26.8724 39.9971 26.7564V19.2444C39.9971 19.1284 39.9971 19.0024 39.9891 18.8844C39.9341 18.0626 39.5822 17.2887 38.999 16.707C38.4158 16.1253 37.6411 15.7754 36.8191 15.7224V15.7204ZM31.1731 24.9424C32.1991 24.9424 33.0331 24.0744 33.0331 23.0004C33.0331 21.9264 32.1991 21.0584 31.1731 21.0584C30.1471 21.0584 29.3151 21.9264 29.3151 23.0004C29.3151 24.0744 30.1451 24.9424 31.1731 24.9424Z" fill="#FFA425"/>
<path fill-rule="evenodd" clip-rule="evenodd" d="M36.468 33.2C36.535 33.1977 36.6016 33.2111 36.6625 33.2392C36.7234 33.2673 36.7768 33.3093 36.8184 33.3619C36.8601 33.4144 36.8888 33.476 36.9022 33.5417C36.9157 33.6074 36.9136 33.6753 36.896 33.74C36.508 35.124 35.894 36.304 34.908 37.296C33.466 38.75 31.636 39.396 29.376 39.702C27.18 40 24.376 40 20.832 40H16.758C13.216 40 10.41 40 8.214 39.702C5.954 39.396 4.124 38.75 2.682 37.296C1.24 35.844 0.6 34 0.296 31.722C0 29.508 0 26.68 0 23.11V22.89C0 19.32 0 16.49 0.296 14.278C0.6 12 1.24 10.16 2.68 8.702C4.122 7.25 5.952 6.602 8.212 6.298C10.41 6 13.216 6 16.758 6H20.832C24.374 6 27.18 6 29.376 6.298C31.636 6.604 33.466 7.25 34.908 8.702C35.894 9.696 36.508 10.876 36.896 12.262C36.9132 12.3266 36.9151 12.3943 36.9014 12.4597C36.8878 12.5251 36.859 12.5864 36.8174 12.6387C36.7758 12.691 36.7225 12.7328 36.6618 12.7608C36.6012 12.7888 36.5348 12.8023 36.468 12.8H31.602C26.134 12.8 21.316 17.154 21.316 23C21.316 28.846 26.136 33.2 31.604 33.2H36.468ZM7.228 13.772C7.03758 13.7728 6.84919 13.8111 6.67356 13.8847C6.49794 13.9583 6.33854 14.0657 6.20445 14.2009C6.07036 14.3361 5.96422 14.4964 5.89208 14.6727C5.81993 14.8489 5.78321 15.0376 5.784 15.228C5.784 16.034 6.43 16.686 7.228 16.686H14.94C15.74 16.686 16.386 16.034 16.386 15.228C16.3871 14.8433 16.2354 14.4738 15.9643 14.2008C15.6931 13.9278 15.3247 13.7736 14.94 13.772H7.228Z" fill="#FFA425"/>
<path d="M11.5547 4.0482L15.4707 1.1622C16.4926 0.406728 17.7299 -0.000976563 19.0007 -0.000976562C20.2715 -0.000976563 21.5088 0.406728 22.5307 1.1622L26.4687 4.0642C24.8207 4.0002 22.9807 4.0002 20.9667 4.0002H16.6267C14.7827 4.0002 13.0887 4.0002 11.5547 4.0482Z" fill="#FFA425"/>
</svg>
